<svg width="539" height="222" viewBox="0 0 539 222" fill="none" xmlns="http://www.w3.org/2000/svg">
<path d="M137.687 175.589C137.687 175.589 137.687 175.507 137.687 175.425L137.769 174.931C137.769 174.767 137.851 174.602 137.851 174.356L137.934 173.698C137.934 173.451 138.016 173.205 138.016 172.876L138.098 172.383C138.18 171.971 138.18 171.643 138.263 171.149L138.427 169.587C138.51 169.258 138.51 168.929 138.592 168.518L138.674 167.943C138.756 167.449 138.839 166.874 138.921 166.381L139.086 164.983C139.744 159.803 140.649 153.226 141.554 146.32L141.636 145.497C141.883 143.689 142.13 141.798 142.377 139.989L142.953 135.714C143.035 134.974 143.118 134.316 143.2 133.576L143.364 132.343C143.447 131.767 143.529 131.274 143.611 130.698L144.023 127.738C144.27 126.012 144.434 124.368 144.681 122.723L144.928 120.832C145.01 120.421 145.01 120.01 145.092 119.599L145.257 118.283C145.339 117.79 145.422 117.215 145.504 116.721L145.668 115.735C145.668 115.488 145.751 115.241 145.751 114.913L146.244 110.966C146.327 110.226 146.409 109.486 146.491 108.911L146.656 107.76C146.656 107.513 146.738 107.266 146.738 107.102L146.82 106.773L145.257 100.113L131.269 108.582L92.9241 101.347C77.1255 93.8649 68.4034 83.6699 68.4034 83.6699C51.7819 62.2112 30.8817 55.7982 22.3241 54.0716L22.0773 53.9072L22.0773 53.9894C19.8556 53.4961 18.5391 53.4139 18.5391 53.4139L10.9689 88.1919L1.99988 115.735L3.56331 122.394C22.3241 120.75 43.1421 139.824 56.3899 150.842C63.6309 156.926 70.2959 164.243 78.1952 169.505C88.563 176.329 100.988 179.371 113.248 179.289C115.305 179.453 137.275 178.549 137.687 175.589Z" fill="#222834"/>
<path d="M16.9758 47C16.9758 47 45.5285 49.631 66.9224 77.2561C66.9224 77.2561 96.3802 111.787 145.339 100.277C145.339 100.277 136.206 168.846 136.206 168.929C135.794 171.888 113.824 172.793 111.767 172.875C99.4247 172.957 86.9998 169.915 76.7143 163.091C68.815 157.911 62.1499 150.512 54.9089 144.428C41.6611 133.411 20.8432 114.336 2.08235 115.98L16.9758 47Z" fill="#5DD5AB" stroke="#222834" stroke-width="1.9906" stroke-miterlimit="10"/>
<path d="M66.8398 86.3013C83.4612 101.758 103.868 113.433 127.648 110.473C127.648 110.473 124.356 122.395 132.914 123.381L130.281 149.28C130.281 149.28 106.336 149.691 110.45 165.23C110.533 165.477 92.9239 163.01 91.6896 162.599C81.8978 159.475 74.7391 151.746 67.2512 145.087C58.6936 137.523 50.3829 129.712 41.0025 123.217C39.8505 122.395 26.0267 115.242 26.0267 115.16C26.0267 115.16 25.3684 102.169 16.564 98.2229L22.7353 66.6514C22.7353 66.6514 34.0906 71.4199 42.895 63.4449C43.3887 62.9515 59.2696 78.5728 60.5861 79.9705C62.5609 82.1904 64.6181 84.2459 66.8398 86.3013Z" fill="white" stroke="#222834" stroke-width="1.9906" stroke-miterlimit="10"/>
<path d="M65.4656 129.489C73.4568 134.784 83.315 133.985 87.4844 127.703C91.6539 121.421 88.5557 112.036 80.5644 106.74C72.5732 101.445 62.715 102.245 58.5455 108.527C54.3761 114.808 57.4743 124.194 65.4656 129.489Z" fill="#5DD5AB" stroke="#222834" stroke-width="1.9239" stroke-miterlimit="10"/>
<path d="M44.7888 107.924L43.5546 111.048L40.0987 109.733L41.2506 106.691C38.4529 105.375 36.0667 103.567 34.8324 101.758L38.2884 98.3047C39.6049 100.113 41.8266 101.922 44.1306 102.827C46.4345 103.731 47.6688 103.402 47.9979 102.416C49.2322 99.2913 36.9718 97.2358 39.8518 89.8363C41.086 86.712 44.2952 84.9032 49.1499 86.1365L50.3842 83.0123L53.8401 84.3277L52.6882 87.3697C54.7453 88.3563 56.5555 89.7541 57.7898 91.234L54.4161 94.7693C52.935 93.0427 51.207 91.8095 49.479 91.0695C47.0928 90.1651 45.9408 90.6585 45.5294 91.6451C44.3774 94.6871 56.5555 96.7425 53.7578 104.142C52.6881 107.184 49.479 108.911 44.7888 107.924Z" fill="#222834"/>
<path d="M102.305 142.208L101.482 145.497L97.9439 144.592L98.7668 141.468C95.8868 140.482 93.2537 138.919 91.8549 137.275L94.8994 133.493C96.3805 135.22 98.7667 136.7 101.153 137.275C103.539 137.933 104.691 137.44 104.938 136.453C105.761 133.164 93.4182 132.506 95.3931 124.86C96.2159 121.654 99.2604 119.516 104.198 120.174L105.02 116.885L108.559 117.79L107.736 120.996C109.875 121.736 111.85 122.887 113.249 124.285L110.287 128.149C108.559 126.587 106.748 125.518 104.938 125.025C102.47 124.367 101.4 124.942 101.153 126.011C100.33 129.136 112.673 129.875 110.698 137.522C110.122 140.564 107.16 142.701 102.305 142.208Z" fill="#222834"/>
<path d="M232.302 142.554C407.068 226.692 453.283 345.956 558.734 285.084L584.351 329.453C495.565 380.713 421.064 400.633 218.438 198.175C211.614 271.372 101.207 232.672 126.566 179.075C64.8833 149.753 103.611 66.8015 159.083 95.3686C181.695 54.8999 260.449 85.9031 232.302 142.554Z" fill="#F7A800"/>
<path d="M190.195 119.25C203.555 127.736 217.637 135.494 232.302 142.554M232.302 142.554C407.068 226.692 453.283 345.956 558.734 285.084L584.351 329.453C495.565 380.713 421.064 400.633 218.438 198.175M232.302 142.554C260.449 85.9031 181.695 54.8999 159.083 95.3686M159.083 95.3686L166.58 108.355M159.083 95.3686C103.611 66.8015 64.8833 149.753 126.566 179.075M126.566 179.075C133.404 167.959 137.694 163.407 146.012 157.746M126.566 179.075C101.207 232.672 211.614 271.372 218.438 198.175M218.438 198.175L180.539 182.541" stroke="#172647" stroke-width="8" stroke-linecap="round"/>
</svg>
