<svg width="66" height="68" viewBox="0 0 66 68" fill="none" xmlns="http://www.w3.org/2000/svg">
<path d="M52.2629 9.72841C52.0161 9.56398 51.6869 9.39956 51.4401 9.23513C51.4401 9.23513 51.3578 9.23515 51.3578 9.15293C51.1932 9.07071 51.1109 8.98845 50.9464 8.90624C50.8641 8.90624 50.8641 8.82404 50.7818 8.82404C50.6995 8.74182 50.535 8.74181 50.4527 8.65959C50.3704 8.65959 50.3704 8.5774 50.2881 8.5774C50.1235 8.49518 50.0412 8.49517 49.8767 8.41295C49.8767 8.41295 49.7944 8.41297 49.7944 8.33075C49.6298 8.24854 49.4652 8.16628 49.3007 8.08406C49.3007 8.08406 49.2184 8.08408 49.1361 8.00186C48.9716 7.91965 48.8893 7.91964 48.7247 7.83742C48.6424 7.83742 48.6424 7.75522 48.5601 7.75522C48.4779 7.673 48.3133 7.67299 48.231 7.59078C48.1487 7.59078 48.1487 7.50858 48.0664 7.50858C47.9018 7.42636 47.7373 7.42635 47.655 7.34413L47.5727 7.34413C47.4082 7.26192 47.2436 7.26191 47.079 7.17969C46.9968 7.17969 46.9967 7.17971 46.9145 7.09749C46.8322 7.09749 46.6676 7.01524 46.5853 7.01524C46.503 7.01524 46.4207 7.01527 46.4207 6.93305C46.3384 6.93305 46.1739 6.8508 46.0916 6.8508C46.0093 6.8508 46.0093 6.85082 45.927 6.7686C45.7625 6.7686 45.6802 6.68641 45.5156 6.68641L45.4334 6.68641C45.2688 6.68641 45.1042 6.60416 44.9396 6.60416C44.8573 6.60416 44.8573 6.60416 44.775 6.60416C44.6105 6.60416 44.5282 6.52196 44.3636 6.52196C44.2813 6.52196 44.1991 6.52196 44.1991 6.52196C44.1168 6.52196 43.9522 6.43971 43.8699 6.43971C43.7876 6.43971 43.7053 6.43971 43.7053 6.43971C43.5408 6.43971 43.4585 6.43973 43.2939 6.35752C43.2116 6.35752 43.2116 6.35752 43.1293 6.35752C42.9648 6.35752 42.8003 6.27532 42.5534 6.27532C42.4711 6.27532 42.4711 6.27532 42.3888 6.27532C42.2243 6.27532 42.142 6.27532 41.9774 6.27532C41.8951 6.27532 41.8128 6.27532 41.8128 6.27532C41.6483 6.27532 41.566 6.27532 41.4014 6.27532L41.2368 6.27532C41.0723 6.27532 40.99 6.27532 40.8254 6.27532C40.7431 6.27532 40.7431 6.27532 40.6608 6.27532C40.4963 6.27532 40.2494 6.27532 40.0849 6.27532L40.0026 6.27532C39.838 6.27532 39.6734 6.27532 39.5089 6.27532C39.4266 6.27532 39.3443 6.27532 39.3443 6.27532C39.1797 6.27532 39.0974 6.27532 38.9329 6.27532C38.8506 6.27532 38.7683 6.27532 38.7683 6.27532C38.6037 6.27532 38.5214 6.27532 38.3569 6.27532C38.2746 6.27532 38.2746 6.27532 38.1923 6.27532C38.0277 6.27532 37.7809 6.2753 37.6163 6.35752C37.3695 6.35752 37.2049 6.43971 36.958 6.43971C36.8757 6.43971 36.7935 6.43971 36.7935 6.43971C36.6289 6.43971 36.4643 6.52196 36.2998 6.52196C36.2175 6.52196 36.2175 6.52196 36.1352 6.52196C35.8883 6.52196 35.7238 6.60416 35.4769 6.60416L35.3947 6.60416C35.2301 6.60416 34.9832 6.68641 34.8187 6.68641C34.7364 6.68641 34.6541 6.68641 34.6541 6.68641C34.4895 6.68641 34.325 6.7686 34.1604 6.7686C34.0781 6.7686 34.0781 6.7686 33.9958 6.7686C33.749 6.85082 33.5844 6.85083 33.3375 6.93305C33.2553 6.93305 33.2552 6.93305 33.173 6.93305C33.0084 7.01527 32.8438 7.01528 32.6793 7.09749C32.597 7.09749 32.5147 7.09747 32.5147 7.17969C32.3501 7.26191 32.1855 7.26192 32.021 7.34414C31.9387 7.34414 31.9387 7.34414 31.8564 7.34414C31.6096 7.42635 31.445 7.50858 31.1981 7.50858C31.1158 7.50858 31.1159 7.50856 31.0336 7.59078C30.869 7.673 30.7044 7.67301 30.5399 7.75522C30.4576 7.75522 30.4576 7.83742 30.3753 7.83742C30.2107 7.91964 30.0462 8.00186 29.7993 8.00186L29.717 8.00186C29.5524 8.08408 29.3056 8.16629 29.141 8.24851C29.0587 8.24851 28.9765 8.33076 28.8942 8.33076C28.7296 8.41297 28.6473 8.41293 28.4827 8.49515C28.4005 8.49515 28.3182 8.5774 28.2359 8.5774C28.0713 8.65962 27.989 8.65963 27.9067 8.74184C27.8245 8.74184 27.7422 8.82402 27.6599 8.90624C27.5776 8.98845 27.4131 8.98846 27.3308 9.07068C27.2485 9.1529 27.1662 9.15291 27.0839 9.23513C27.0016 9.31734 26.8371 9.39957 26.7548 9.39957C26.6725 9.48179 26.5902 9.4818 26.508 9.56402C26.3434 9.64623 26.2611 9.72844 26.0965 9.81066C26.0142 9.89288 25.9319 9.89289 25.8496 9.9751C25.6851 10.0573 25.6028 10.1395 25.4382 10.2217C25.3559 10.2217 25.356 10.3039 25.2737 10.3039C25.1091 10.3862 24.8623 10.5506 24.6977 10.6328C24.4508 10.7973 24.1217 10.9617 23.8748 11.1261C23.7926 11.2083 23.7103 11.2083 23.628 11.2906C23.3811 11.455 23.1343 11.6194 22.9697 11.7838L22.8874 11.8661C22.6406 12.0305 22.3937 12.2772 22.1468 12.4416C22.0646 12.5238 21.9823 12.5238 21.9823 12.606C21.7355 12.7705 21.5709 12.9349 21.324 13.0994C21.2417 13.0994 21.2418 13.1816 21.1595 13.1816C20.9126 13.346 20.6657 13.5927 20.5012 13.7571C20.4189 13.8393 20.4189 13.8393 20.3366 13.9215C20.1721 14.086 20.0075 14.2504 19.7606 14.4148C19.6783 14.497 19.5961 14.497 19.5961 14.5793C19.4315 14.7437 19.1846 14.9081 19.0201 15.0725L18.9378 15.1548C18.6909 15.4014 18.5264 15.5659 18.2795 15.8125C18.1972 15.8947 18.1972 15.8948 18.1149 15.977C17.9504 16.1414 17.7858 16.3058 17.6212 16.4703C17.5389 16.5525 17.539 16.6347 17.4567 16.6347C17.2921 16.8814 17.0452 17.0458 16.8807 17.2924C16.7161 17.5391 16.4692 17.7857 16.3047 17.9502C16.2224 18.0324 16.2224 18.1146 16.1401 18.1146C16.0578 18.1968 15.9756 18.3613 15.811 18.4435C15.7287 18.5257 15.7287 18.5257 15.6464 18.6079C15.5641 18.6902 15.5641 18.7723 15.4818 18.7723C15.3173 19.019 15.0704 19.2657 14.9058 19.5123C14.9058 19.5945 14.8236 19.5945 14.8236 19.6768C14.659 19.9234 14.4944 20.0878 14.3298 20.3345C14.2475 20.4167 14.2476 20.4989 14.1653 20.5811C14.0007 20.8278 13.8362 21.0744 13.5893 21.4033C13.4247 21.65 13.2601 21.8966 13.0956 22.2255C13.0133 22.3077 12.931 22.4721 12.931 22.5544C12.8488 22.6366 12.8487 22.7188 12.7665 22.801C12.6842 22.9654 12.6019 23.0477 12.5196 23.2121L12.4373 23.3765C12.355 23.541 12.1905 23.7876 12.1082 23.9521C12.0259 24.1987 11.8613 24.3631 11.779 24.6098C11.779 24.692 11.6968 24.7742 11.6968 24.7742C11.6145 24.9387 11.5322 25.1031 11.4499 25.1853C11.4499 25.2676 11.3676 25.3498 11.3676 25.432C11.2853 25.5964 11.203 25.6786 11.203 25.8431C11.203 25.9253 11.1208 26.0075 11.1208 26.0897C11.0385 26.2541 11.0385 26.3364 10.9562 26.5008C10.9562 26.583 10.8739 26.6652 10.8739 26.7474C10.7916 26.8297 10.7916 26.9941 10.7094 27.0763C10.6271 27.1585 10.6271 27.3229 10.5448 27.4052C10.4625 27.4874 10.4625 27.6518 10.3802 27.7341C10.2979 27.8163 10.2979 27.9807 10.2156 28.0629C10.1333 28.1452 10.1334 28.3096 10.0511 28.3918C9.9688 28.474 9.96879 28.6385 9.88651 28.7207C9.80423 28.8029 9.80422 28.9673 9.72193 29.1318C9.72193 29.214 9.63967 29.3784 9.63967 29.4606C9.63967 29.625 9.55735 29.7073 9.55735 29.8717C9.55735 29.9539 9.47509 30.1184 9.47509 30.2006C9.47509 30.365 9.39277 30.4472 9.39277 30.6117C9.39277 30.6939 9.31051 30.8583 9.31051 30.9406C9.31051 31.105 9.22825 31.1872 9.22825 31.3516C9.22825 31.4339 9.14593 31.5983 9.14593 31.6805C9.14593 31.8449 9.06367 31.9271 9.06367 32.0916C9.06367 32.1738 8.98135 32.3382 8.98135 32.4205C8.98135 32.5849 8.89909 32.6671 8.89909 32.8315C8.89909 32.9138 8.81682 33.0782 8.81682 33.1604C8.81682 33.3248 8.73451 33.407 8.73451 33.5715C8.73451 33.6537 8.65225 33.8181 8.65225 33.9004C8.65225 34.0648 8.56993 34.147 8.56993 34.3115C8.56993 34.3937 8.48766 34.5581 8.48766 34.6403C8.48766 34.8048 8.4054 34.887 8.4054 35.0514C8.4054 35.1336 8.40537 35.2981 8.32309 35.3803C8.32309 35.5447 8.32311 35.7091 8.24082 35.7914C8.24082 35.8736 8.24079 36.038 8.15851 36.1202C8.15851 36.2847 8.15853 36.4491 8.07625 36.6135C8.07625 36.6957 8.07625 36.778 8.07625 36.9424C8.07625 37.1069 8.07626 37.2713 7.99398 37.4357C7.99398 37.5179 7.99398 37.6001 7.99398 37.6823C7.99398 37.929 7.99395 38.1757 7.91166 38.4223C7.33568 49.1106 12.1082 58.0723 19.6783 62.7587L13.2601 58.8123C5.68999 54.2081 0.917509 45.2464 1.4935 34.4759C1.4935 34.2292 1.49348 33.9826 1.57576 33.7359C1.57576 33.6537 1.57576 33.5715 1.57576 33.4893C1.57576 33.3248 1.57579 33.1604 1.65808 32.996C1.65808 32.9138 1.65808 32.8315 1.65808 32.6671C1.65808 32.5027 1.65806 32.3383 1.74034 32.1738C1.74034 32.0916 1.74037 31.9271 1.82266 31.8449C1.82266 31.6805 1.82264 31.5161 1.90492 31.4338C1.90492 31.3516 1.9049 31.1872 1.98718 31.105C1.98718 30.9405 2.0695 30.8583 2.0695 30.6939C2.0695 30.6116 2.06948 30.4472 2.15176 30.365C2.15176 30.2006 2.23408 30.1184 2.23408 29.9539C2.23408 29.8717 2.31634 29.7073 2.31634 29.625C2.31634 29.4606 2.39861 29.3784 2.39861 29.214C2.39861 29.1317 2.48092 28.9673 2.48092 28.8851C2.48092 28.7207 2.56318 28.6385 2.56318 28.474C2.56318 28.3918 2.6455 28.2274 2.6455 28.1451C2.6455 27.9807 2.72776 27.8985 2.72776 27.7341C2.72776 27.6518 2.81003 27.4874 2.81003 27.4052C2.81003 27.2407 2.89234 27.1585 2.89234 26.9941C2.89234 26.9119 2.97461 26.7475 2.97461 26.6652C2.97461 26.5008 3.05692 26.4186 3.05692 26.2542C3.05692 26.1719 3.13918 26.0075 3.13918 25.9253C3.13918 25.7608 3.22145 25.6786 3.22145 25.5142C3.22145 25.432 3.30376 25.2676 3.30376 25.1853C3.38605 25.0209 3.38606 24.9387 3.46834 24.7742C3.46834 24.692 3.55059 24.5276 3.63287 24.4454C3.71515 24.3631 3.71517 24.1987 3.79745 24.1165C3.87974 24.0343 3.87974 23.8698 3.96203 23.7876C4.04431 23.7054 4.04432 23.541 4.12661 23.4587C4.20889 23.3765 4.2089 23.2121 4.29118 23.1299C4.29118 23.0477 4.37345 22.9654 4.37345 22.8832C4.37345 22.8832 4.37343 22.801 4.45571 22.801C4.45571 22.7188 4.53803 22.6366 4.53803 22.5544C4.62031 22.3899 4.62032 22.3077 4.70261 22.1433C4.70261 22.0611 4.78487 21.9789 4.78487 21.8966C4.86715 21.7322 4.94945 21.65 4.94945 21.4855C4.94945 21.4033 5.03171 21.3211 5.03171 21.2389C5.114 21.0744 5.19627 20.91 5.27856 20.8278C5.27856 20.7456 5.36087 20.6634 5.36087 20.6634C5.44315 20.4167 5.60769 20.2522 5.68998 20.0056C5.77226 19.7589 5.93685 19.5945 6.01914 19.3479C6.01914 19.2656 6.1014 19.1834 6.1014 19.1834C6.18369 19.019 6.26601 18.9368 6.34829 18.7723C6.43058 18.6901 6.43054 18.6079 6.51282 18.5257C6.5951 18.4435 6.59512 18.3613 6.6774 18.279L6.75972 18.1968C6.92428 17.9502 7.08883 17.6213 7.2534 17.3747C7.41797 17.128 7.58255 16.7992 7.8294 16.5525C7.91169 16.4703 7.91169 16.388 7.99398 16.3058C8.15855 16.0592 8.3231 15.8947 8.48766 15.6481C8.48766 15.5659 8.56993 15.5659 8.56993 15.4836C8.7345 15.237 8.8991 14.9904 9.06367 14.7437C9.06367 14.7437 9.06364 14.7437 9.14593 14.6615C9.14593 14.6615 9.14596 14.5793 9.22825 14.5793C9.22825 14.497 9.31051 14.497 9.31051 14.4148C9.47508 14.2504 9.55736 14.0859 9.72193 13.8393C9.80421 13.7571 9.80423 13.6749 9.88651 13.6749C10.0511 13.4282 10.2979 13.1815 10.4625 13.0171C10.6271 12.7705 10.8739 12.606 11.0385 12.3594C11.1207 12.2772 11.1208 12.1949 11.203 12.1949C11.3676 12.0305 11.5322 11.8661 11.6968 11.7017L11.779 11.6195C11.779 11.6195 11.779 11.6194 11.8613 11.5372C12.1082 11.2906 12.2728 11.1261 12.5196 10.8795L12.6019 10.7973C12.7664 10.6328 13.0133 10.4684 13.1779 10.3039C13.2602 10.2217 13.3425 10.2217 13.3425 10.1395C13.507 9.97506 13.6716 9.81065 13.9184 9.64621C14.0007 9.564 14.0007 9.56399 14.083 9.48177C14.3298 9.31733 14.5767 9.07067 14.7413 8.90624C14.7413 8.90624 14.7413 8.90624 14.8236 8.90624L14.9058 8.82404C15.1527 8.65961 15.3172 8.49519 15.5641 8.33076C15.6464 8.24854 15.7287 8.24853 15.7287 8.16631C15.9755 8.00188 16.2224 7.75521 16.4693 7.59078L16.5515 7.50858C16.7984 7.34415 17.0452 7.17968 17.2098 7.01525C17.2921 6.93303 17.3744 6.93302 17.4567 6.8508C17.7035 6.68637 17.9504 6.52195 18.2795 6.35752C18.4441 6.2753 18.6909 6.11084 18.8555 6.02863C18.9378 6.02863 18.9378 5.94643 19.0201 5.94643C19.1846 5.86421 19.2669 5.782 19.4315 5.69979C19.5138 5.61757 19.596 5.61756 19.6783 5.53534C19.8429 5.45312 19.9252 5.37092 20.0897 5.2887C20.172 5.20648 20.2543 5.20647 20.3366 5.12425C20.4189 5.04204 20.5835 4.95981 20.6657 4.95981C20.748 4.87759 20.8303 4.87758 20.9126 4.79536C20.9949 4.71315 21.1595 4.71319 21.2417 4.63097C21.324 4.54875 21.4063 4.54874 21.4886 4.46652C21.5709 4.38431 21.7354 4.3843 21.9 4.30208C21.9823 4.30208 22.0646 4.21988 22.1468 4.21988C22.3114 4.13767 22.3937 4.13766 22.5583 4.05544C22.6406 4.05544 22.7229 3.97319 22.8052 3.97319L22.8874 3.97319C23.052 3.89097 23.2165 3.80877 23.3811 3.72655L23.4634 3.72655C23.628 3.64433 23.7926 3.5621 24.0394 3.5621C24.1217 3.5621 24.1217 3.47991 24.204 3.47991C24.3685 3.39769 24.5331 3.39768 24.6977 3.31546C24.78 3.31546 24.78 3.31548 24.8623 3.23326C25.0268 3.15105 25.2737 3.06882 25.5205 3.06882C25.6028 3.06882 25.6028 3.06882 25.6851 3.06882C25.8497 2.9866 26.0142 2.98659 26.1788 2.90437C26.2611 2.90437 26.3434 2.90439 26.3434 2.82218C26.5079 2.73996 26.6725 2.73995 26.8371 2.65773C26.9193 2.65773 26.9194 2.65773 27.0016 2.65773C27.2485 2.57551 27.4131 2.5755 27.6599 2.49329C27.7422 2.49329 27.7422 2.49329 27.8245 2.49329C27.9891 2.49329 28.1536 2.41109 28.3182 2.41109C28.4005 2.41109 28.4827 2.41109 28.4827 2.41109C28.6473 2.41109 28.8942 2.32884 29.0587 2.32884L29.141 2.32884C29.3879 2.32884 29.5525 2.24664 29.7993 2.24664C29.8816 2.24664 29.8816 2.24664 29.9639 2.24664C30.1284 2.24664 30.293 2.16445 30.4576 2.16445C30.5399 2.16445 30.6222 2.16445 30.6222 2.16445C30.869 2.16445 31.0336 2.0822 31.2804 2.0822C31.445 2.0822 31.6919 2.08222 31.8564 2C31.9387 2 31.9387 2 32.021 2C32.1855 2 32.2678 2 32.4324 2C32.5147 2 32.597 2 32.597 2C32.7615 2 32.8438 2 33.0084 2C33.0907 2 33.173 2 33.173 2C33.3375 2 33.5021 2 33.6667 2L33.749 2C33.9135 2 34.1604 2 34.325 2C34.4072 2 34.4072 2 34.4895 2C34.6541 2 34.7363 2 34.9009 2C34.9832 2 35.0655 2 35.0655 2C35.2301 2 35.3123 2 35.4769 2C35.5592 2 35.6415 2 35.6415 2C35.8061 2 35.8883 2 36.0529 2C36.1352 2 36.1352 2 36.2175 2C36.3821 2 36.5466 1.99998 36.7935 2.0822C36.8758 2.0822 36.8757 2.0822 36.958 2.0822C37.1226 2.0822 37.2049 2.08223 37.3694 2.16445C37.4517 2.16445 37.534 2.16445 37.534 2.16445C37.6163 2.16445 37.7809 2.16443 37.8632 2.24664C37.9455 2.24664 38.0278 2.24664 38.0278 2.24664C38.1923 2.24664 38.2746 2.32884 38.4392 2.32884C38.5215 2.32884 38.5214 2.32884 38.6037 2.32884C38.7683 2.32884 38.9329 2.41109 39.0974 2.41109L39.1797 2.41109C39.3443 2.41109 39.4266 2.49329 39.5911 2.49329C39.6734 2.49329 39.6734 2.49332 39.7557 2.57553C39.838 2.57553 40.0026 2.65773 40.0849 2.65773C40.1672 2.65773 40.1671 2.65771 40.2494 2.73993C40.3317 2.73993 40.4963 2.82218 40.5786 2.82218L40.6608 2.82218C40.8254 2.90439 40.99 2.9044 41.1546 2.98662L41.2368 2.98662C41.4014 3.06884 41.566 3.0688 41.6482 3.15101C41.7305 3.15101 41.7305 3.15104 41.8128 3.23326C41.8951 3.31548 42.0597 3.31549 42.142 3.39771C42.2243 3.39771 42.2242 3.4799 42.3065 3.4799C42.4711 3.56212 42.5534 3.56213 42.7179 3.64435C42.8002 3.64435 42.8002 3.64433 42.8825 3.72655C43.0471 3.80876 43.2117 3.89097 43.3762 3.97319C43.3762 3.97319 43.4585 3.97322 43.4585 4.05544C43.6231 4.13765 43.7054 4.13766 43.8699 4.21988L44.0345 4.30208C44.1168 4.3843 44.2813 4.38431 44.3636 4.46652C44.4459 4.46652 44.4459 4.54872 44.5282 4.54872C44.6928 4.63094 44.775 4.71315 44.9396 4.79536L45.0219 4.79536C45.2688 4.9598 45.5979 5.12426 45.8448 5.2887L52.2629 9.72841Z" fill="white"/>
<path d="M52.2629 9.72841C52.0161 9.56398 51.6869 9.39956 51.4401 9.23513C51.4401 9.23513 51.3578 9.23515 51.3578 9.15293C51.1932 9.07071 51.1109 8.98845 50.9464 8.90624C50.8641 8.90624 50.8641 8.82404 50.7818 8.82404C50.6995 8.74182 50.535 8.74181 50.4527 8.65959C50.3704 8.65959 50.3704 8.5774 50.2881 8.5774C50.1235 8.49518 50.0412 8.49517 49.8767 8.41295C49.8767 8.41295 49.7944 8.41297 49.7944 8.33075C49.6298 8.24854 49.4652 8.16628 49.3007 8.08406C49.3007 8.08406 49.2184 8.08408 49.1361 8.00186C48.9716 7.91965 48.8893 7.91964 48.7247 7.83742C48.6424 7.83742 48.6424 7.75522 48.5601 7.75522C48.4779 7.673 48.3133 7.67299 48.231 7.59078C48.1487 7.59078 48.1487 7.50858 48.0664 7.50858C47.9018 7.42636 47.7373 7.42635 47.655 7.34413L47.5727 7.34413C47.4082 7.26192 47.2436 7.26191 47.079 7.17969C46.9968 7.17969 46.9967 7.17971 46.9145 7.09749C46.8322 7.09749 46.6676 7.01524 46.5853 7.01524C46.503 7.01524 46.4207 7.01527 46.4207 6.93305C46.3384 6.93305 46.1739 6.8508 46.0916 6.8508C46.0093 6.8508 46.0093 6.85082 45.927 6.7686C45.7625 6.7686 45.6802 6.68641 45.5156 6.68641L45.4334 6.68641C45.2688 6.68641 45.1042 6.60416 44.9396 6.60416C44.8573 6.60416 44.8573 6.60416 44.775 6.60416C44.6105 6.60416 44.5282 6.52196 44.3636 6.52196C44.2813 6.52196 44.1991 6.52196 44.1991 6.52196C44.1168 6.52196 43.9522 6.43971 43.8699 6.43971C43.7876 6.43971 43.7053 6.43971 43.7053 6.43971C43.5408 6.43971 43.4585 6.43973 43.2939 6.35752C43.2116 6.35752 43.2116 6.35752 43.1293 6.35752C42.9648 6.35752 42.8003 6.27532 42.5534 6.27532C42.4711 6.27532 42.4711 6.27532 42.3888 6.27532C42.2243 6.27532 42.142 6.27532 41.9774 6.27532C41.8951 6.27532 41.8128 6.27532 41.8128 6.27532C41.6483 6.27532 41.566 6.27532 41.4014 6.27532L41.2368 6.27532C41.0723 6.27532 40.99 6.27532 40.8254 6.27532C40.7431 6.27532 40.7431 6.27532 40.6608 6.27532C40.4963 6.27532 40.2494 6.27532 40.0849 6.27532L40.0026 6.27532C39.838 6.27532 39.6734 6.27532 39.5089 6.27532C39.4266 6.27532 39.3443 6.27532 39.3443 6.27532C39.1797 6.27532 39.0974 6.27532 38.9329 6.27532C38.8506 6.27532 38.7683 6.27532 38.7683 6.27532C38.6037 6.27532 38.5214 6.27532 38.3569 6.27532C38.2746 6.27532 38.2746 6.27532 38.1923 6.27532C38.0277 6.27532 37.7809 6.2753 37.6163 6.35752C37.3695 6.35752 37.2049 6.43971 36.958 6.43971C36.8757 6.43971 36.7935 6.43971 36.7935 6.43971C36.6289 6.43971 36.4643 6.52196 36.2998 6.52196C36.2175 6.52196 36.2175 6.52196 36.1352 6.52196C35.8883 6.52196 35.7238 6.60416 35.4769 6.60416L35.3947 6.60416C35.2301 6.60416 34.9832 6.68641 34.8187 6.68641C34.7364 6.68641 34.6541 6.68641 34.6541 6.68641C34.4895 6.68641 34.325 6.7686 34.1604 6.7686C34.0781 6.7686 34.0781 6.7686 33.9958 6.7686C33.749 6.85082 33.5844 6.85083 33.3375 6.93305C33.2553 6.93305 33.2552 6.93305 33.173 6.93305C33.0084 7.01527 32.8438 7.01528 32.6793 7.09749C32.597 7.09749 32.5147 7.09747 32.5147 7.17969C32.3501 7.26191 32.1855 7.26192 32.021 7.34414C31.9387 7.34414 31.9387 7.34414 31.8564 7.34414C31.6096 7.42635 31.445 7.50858 31.1981 7.50858C31.1158 7.50858 31.1159 7.50856 31.0336 7.59078C30.869 7.673 30.7044 7.67301 30.5399 7.75522C30.4576 7.75522 30.4576 7.83742 30.3753 7.83742C30.2107 7.91964 30.0462 8.00187 29.7993 8.00187L29.717 8.00187C29.5524 8.08408 29.3056 8.16629 29.141 8.24851C29.0587 8.24851 28.9765 8.33076 28.8942 8.33076C28.7296 8.41297 28.6473 8.41293 28.4827 8.49515C28.4005 8.49515 28.3182 8.5774 28.2359 8.5774C28.0713 8.65961 27.989 8.65962 27.9067 8.74184C27.8245 8.74184 27.7422 8.82402 27.6599 8.90624C27.5776 8.98845 27.4131 8.98846 27.3308 9.07068C27.2485 9.1529 27.1662 9.15291 27.0839 9.23513C27.0016 9.31734 26.8371 9.39957 26.7548 9.39957C26.6725 9.48179 26.5902 9.4818 26.508 9.56402C26.3434 9.64623 26.2611 9.72844 26.0965 9.81066C26.0142 9.89288 25.9319 9.89289 25.8496 9.9751C25.6851 10.0573 25.6028 10.1395 25.4382 10.2217C25.3559 10.2217 25.356 10.3039 25.2737 10.3039C25.1091 10.3862 24.8623 10.5506 24.6977 10.6328C24.4508 10.7973 24.1217 10.9617 23.8748 11.1261C23.7926 11.2083 23.7103 11.2083 23.628 11.2906C23.3811 11.455 23.1343 11.6194 22.9697 11.7838L22.8874 11.8661C22.6406 12.0305 22.3937 12.2772 22.1468 12.4416C22.0646 12.5238 21.9823 12.5238 21.9823 12.606C21.7355 12.7705 21.5709 12.9349 21.324 13.0994C21.2417 13.0994 21.2418 13.1816 21.1595 13.1816C20.9126 13.346 20.6657 13.5927 20.5012 13.7571C20.4189 13.8393 20.4189 13.8393 20.3366 13.9215C20.1721 14.086 20.0075 14.2504 19.7606 14.4148C19.6783 14.497 19.5961 14.497 19.5961 14.5793C19.4315 14.7437 19.1846 14.9081 19.0201 15.0725L18.9378 15.1548C18.6909 15.4014 18.5264 15.5659 18.2795 15.8125C18.1972 15.8947 18.1972 15.8948 18.1149 15.977C17.9504 16.1414 17.7858 16.3058 17.6212 16.4703C17.5389 16.5525 17.539 16.6347 17.4567 16.6347C17.2921 16.8814 17.0452 17.0458 16.8807 17.2924C16.7161 17.5391 16.4692 17.7857 16.3047 17.9502C16.2224 18.0324 16.2224 18.1146 16.1401 18.1146C16.0578 18.1968 15.9756 18.3613 15.811 18.4435C15.7287 18.5257 15.7287 18.5257 15.6464 18.6079C15.5641 18.6902 15.5641 18.7723 15.4818 18.7723C15.3173 19.019 15.0704 19.2657 14.9058 19.5123C14.9058 19.5945 14.8236 19.5945 14.8236 19.6768C14.659 19.9234 14.4944 20.0878 14.3298 20.3345C14.2475 20.4167 14.2476 20.4989 14.1653 20.5811C14.0007 20.8278 13.8362 21.0744 13.5893 21.4033C13.4247 21.65 13.2601 21.8966 13.0956 22.2255C13.0133 22.3077 12.931 22.4721 12.931 22.5544C12.8488 22.6366 12.8487 22.7188 12.7665 22.801C12.6842 22.9654 12.6019 23.0477 12.5196 23.2121L12.4373 23.3765C12.355 23.541 12.1905 23.7876 12.1082 23.9521C12.0259 24.1987 11.8613 24.3631 11.779 24.6098C11.779 24.692 11.6968 24.7742 11.6968 24.7742C11.6145 24.9387 11.5322 25.1031 11.4499 25.1853C11.4499 25.2676 11.3676 25.3498 11.3676 25.432C11.2853 25.5964 11.203 25.6786 11.203 25.8431C11.203 25.9253 11.1208 26.0075 11.1208 26.0897C11.0385 26.2541 11.0385 26.3364 10.9562 26.5008C10.9562 26.583 10.8739 26.6652 10.8739 26.7474C10.7916 26.8297 10.7916 26.9941 10.7094 27.0763C10.6271 27.1585 10.6271 27.3229 10.5448 27.4052C10.4625 27.4874 10.4625 27.6518 10.3802 27.7341C10.2979 27.8163 10.2979 27.9807 10.2156 28.0629C10.1333 28.1452 10.1334 28.3096 10.0511 28.3918C9.9688 28.474 9.96879 28.6385 9.88651 28.7207C9.80423 28.8029 9.80422 28.9673 9.72193 29.1318C9.72193 29.214 9.63967 29.3784 9.63967 29.4606C9.63967 29.625 9.55735 29.7073 9.55735 29.8717C9.55735 29.9539 9.47509 30.1184 9.47509 30.2006C9.47509 30.365 9.39277 30.4472 9.39277 30.6117C9.39277 30.6939 9.31051 30.8583 9.31051 30.9406C9.31051 31.105 9.22825 31.1872 9.22825 31.3516C9.22825 31.4339 9.14593 31.5983 9.14593 31.6805C9.14593 31.8449 9.06367 31.9271 9.06367 32.0916C9.06367 32.1738 8.98135 32.3382 8.98135 32.4205C8.98135 32.5849 8.89909 32.6671 8.89909 32.8315C8.89909 32.9138 8.81682 33.0782 8.81682 33.1604C8.81682 33.3248 8.73451 33.407 8.73451 33.5715C8.73451 33.6537 8.65225 33.8181 8.65225 33.9004C8.65225 34.0648 8.56993 34.147 8.56993 34.3115C8.56993 34.3937 8.48767 34.5581 8.48767 34.6403C8.48767 34.8048 8.4054 34.887 8.4054 35.0514C8.4054 35.1336 8.40537 35.2981 8.32309 35.3803C8.32309 35.5447 8.32311 35.7091 8.24082 35.7914C8.24082 35.8736 8.24079 36.038 8.15851 36.1202C8.15851 36.2847 8.15853 36.4491 8.07625 36.6135C8.07625 36.6957 8.07625 36.778 8.07625 36.9424C8.07625 37.1069 8.07627 37.2713 7.99398 37.4357C7.99398 37.5179 7.99398 37.6001 7.99398 37.6823C7.99398 37.929 7.99395 38.1757 7.91167 38.4223C7.33568 49.1106 12.1082 58.0723 19.6783 62.7587L13.2601 58.8123C5.68999 54.2081 0.917509 45.2464 1.4935 34.4759C1.4935 34.2292 1.49348 33.9826 1.57576 33.7359C1.57576 33.6537 1.57576 33.5715 1.57576 33.4893C1.57576 33.3248 1.57579 33.1604 1.65808 32.996C1.65808 32.9138 1.65808 32.8315 1.65808 32.6671C1.65808 32.5027 1.65806 32.3383 1.74034 32.1738C1.74034 32.0916 1.74037 31.9271 1.82266 31.8449C1.82266 31.6805 1.82264 31.5161 1.90492 31.4338C1.90492 31.3516 1.9049 31.1872 1.98718 31.105C1.98718 30.9405 2.0695 30.8583 2.0695 30.6939C2.0695 30.6116 2.06948 30.4472 2.15176 30.365C2.15176 30.2006 2.23408 30.1184 2.23408 29.9539C2.23408 29.8717 2.31634 29.7073 2.31634 29.625C2.31634 29.4606 2.39861 29.3784 2.39861 29.214C2.39861 29.1317 2.48092 28.9673 2.48092 28.8851C2.48092 28.7207 2.56318 28.6385 2.56318 28.474C2.56318 28.3918 2.6455 28.2274 2.6455 28.1451C2.6455 27.9807 2.72776 27.8985 2.72776 27.7341C2.72776 27.6518 2.81003 27.4874 2.81003 27.4052C2.81003 27.2407 2.89234 27.1585 2.89234 26.9941C2.89234 26.9119 2.97461 26.7475 2.97461 26.6652C2.97461 26.5008 3.05692 26.4186 3.05692 26.2542C3.05692 26.1719 3.13918 26.0075 3.13918 25.9253C3.13918 25.7608 3.22145 25.6786 3.22145 25.5142C3.22145 25.432 3.30376 25.2676 3.30376 25.1853C3.38605 25.0209 3.38606 24.9387 3.46834 24.7742C3.46834 24.692 3.55059 24.5276 3.63287 24.4454C3.71515 24.3631 3.71516 24.1987 3.79745 24.1165C3.87973 24.0342 3.87974 23.8698 3.96203 23.7876C4.04431 23.7054 4.04432 23.541 4.12661 23.4587C4.20889 23.3765 4.2089 23.2121 4.29119 23.1299C4.29119 23.0477 4.37345 22.9654 4.37345 22.8832C4.37345 22.8832 4.37343 22.801 4.45571 22.801C4.45571 22.7188 4.53803 22.6366 4.53803 22.5544C4.62031 22.3899 4.62032 22.3077 4.70261 22.1433C4.70261 22.0611 4.78487 21.9789 4.78487 21.8966C4.86716 21.7322 4.94945 21.65 4.94945 21.4855C4.94945 21.4033 5.03171 21.3211 5.03171 21.2389C5.114 21.0744 5.19627 20.91 5.27856 20.8278C5.27856 20.7456 5.36087 20.6634 5.36087 20.6634C5.44316 20.4167 5.60769 20.2522 5.68998 20.0056C5.77226 19.7589 5.93685 19.5945 6.01914 19.3479C6.01914 19.2656 6.1014 19.1834 6.1014 19.1834C6.18368 19.019 6.26601 18.9368 6.34829 18.7723C6.43058 18.6901 6.43054 18.6079 6.51282 18.5257C6.59511 18.4435 6.59512 18.3613 6.6774 18.279L6.75971 18.1969C6.92428 17.9502 7.08883 17.6213 7.2534 17.3747C7.41797 17.128 7.58255 16.7992 7.8294 16.5525C7.91169 16.4703 7.9117 16.388 7.99398 16.3058C8.15855 16.0592 8.3231 15.8947 8.48767 15.6481C8.48767 15.5659 8.56993 15.5659 8.56993 15.4836C8.7345 15.237 8.8991 14.9904 9.06367 14.7437C9.06367 14.7437 9.06365 14.7437 9.14593 14.6615C9.14593 14.6615 9.14596 14.5793 9.22824 14.5793C9.22824 14.497 9.31051 14.497 9.31051 14.4148C9.47508 14.2504 9.55736 14.0859 9.72193 13.8393C9.80421 13.7571 9.80423 13.6749 9.88651 13.6749C10.0511 13.4282 10.2979 13.1815 10.4625 13.0171C10.6271 12.7705 10.8739 12.606 11.0385 12.3594C11.1207 12.2772 11.1208 12.1949 11.203 12.1949C11.3676 12.0305 11.5322 11.8661 11.6968 11.7017L11.779 11.6195C11.779 11.6195 11.779 11.6194 11.8613 11.5372C12.1082 11.2906 12.2728 11.1261 12.5196 10.8795L12.6019 10.7973C12.7665 10.6328 13.0133 10.4684 13.1779 10.3039C13.2602 10.2217 13.3425 10.2217 13.3425 10.1395C13.507 9.97506 13.6716 9.81065 13.9184 9.64621C14.0007 9.564 14.0007 9.56399 14.083 9.48177C14.3298 9.31734 14.5767 9.07067 14.7413 8.90624C14.7413 8.90624 14.7413 8.90624 14.8236 8.90624L14.9058 8.82404C15.1527 8.65961 15.3172 8.49519 15.5641 8.33076C15.6464 8.24854 15.7287 8.24853 15.7287 8.16631C15.9755 8.00188 16.2224 7.75521 16.4693 7.59078L16.5515 7.50858C16.7984 7.34415 17.0452 7.17968 17.2098 7.01525C17.2921 6.93303 17.3744 6.93302 17.4567 6.8508C17.7035 6.68637 17.9504 6.52195 18.2795 6.35752C18.4441 6.2753 18.6909 6.11084 18.8555 6.02863C18.9378 6.02863 18.9378 5.94643 19.02 5.94643C19.1846 5.86421 19.2669 5.782 19.4315 5.69979C19.5138 5.61757 19.596 5.61756 19.6783 5.53534C19.8429 5.45312 19.9252 5.37092 20.0897 5.2887C20.172 5.20648 20.2543 5.20647 20.3366 5.12425C20.4189 5.04204 20.5835 4.95981 20.6657 4.95981C20.748 4.87759 20.8303 4.87758 20.9126 4.79536C20.9949 4.71315 21.1595 4.71319 21.2417 4.63097C21.324 4.54875 21.4063 4.54874 21.4886 4.46652C21.5709 4.38431 21.7354 4.3843 21.9 4.30208C21.9823 4.30208 22.0646 4.21988 22.1468 4.21988C22.3114 4.13767 22.3937 4.13766 22.5583 4.05544C22.6406 4.05544 22.7229 3.97319 22.8052 3.97319L22.8874 3.97319C23.052 3.89097 23.2165 3.80877 23.3811 3.72655L23.4634 3.72655C23.628 3.64433 23.7926 3.5621 24.0394 3.5621C24.1217 3.5621 24.1217 3.47991 24.204 3.47991C24.3685 3.39769 24.5331 3.39768 24.6977 3.31546C24.78 3.31546 24.78 3.31548 24.8623 3.23326C25.0268 3.15105 25.2737 3.06882 25.5205 3.06882C25.6028 3.06882 25.6028 3.06882 25.6851 3.06882C25.8497 2.9866 26.0142 2.98659 26.1788 2.90437C26.2611 2.90437 26.3434 2.90439 26.3434 2.82218C26.5079 2.73996 26.6725 2.73995 26.8371 2.65773C26.9193 2.65773 26.9194 2.65773 27.0016 2.65773C27.2485 2.57551 27.4131 2.5755 27.6599 2.49329C27.7422 2.49329 27.7422 2.49329 27.8245 2.49329C27.9891 2.49329 28.1536 2.41109 28.3182 2.41109C28.4005 2.41109 28.4827 2.41109 28.4827 2.41109C28.6473 2.41109 28.8942 2.32884 29.0587 2.32884L29.141 2.32884C29.3879 2.32884 29.5525 2.24664 29.7993 2.24664C29.8816 2.24664 29.8816 2.24664 29.9639 2.24664C30.1284 2.24664 30.293 2.16445 30.4576 2.16445C30.5399 2.16445 30.6222 2.16445 30.6222 2.16445C30.869 2.16445 31.0336 2.0822 31.2804 2.0822C31.445 2.0822 31.6919 2.08222 31.8564 2C31.9387 2 31.9387 2 32.021 2C32.1855 2 32.2678 2 32.4324 2C32.5147 2 32.597 2 32.597 2C32.7615 2 32.8438 2 33.0084 2C33.0907 2 33.173 2 33.173 2C33.3375 2 33.5021 2 33.6667 2L33.749 2C33.9135 2 34.1604 2 34.325 2C34.4072 2 34.4072 2 34.4895 2C34.6541 2 34.7363 2 34.9009 2C34.9832 2 35.0655 2 35.0655 2C35.2301 2 35.3123 2 35.4769 2C35.5592 2 35.6415 2 35.6415 2C35.8061 2 35.8883 2 36.0529 2C36.1352 2 36.1352 2 36.2175 2C36.3821 2 36.5466 1.99998 36.7935 2.0822C36.8758 2.0822 36.8757 2.0822 36.958 2.0822C37.1226 2.0822 37.2049 2.08223 37.3694 2.16445C37.4517 2.16445 37.534 2.16445 37.534 2.16445C37.6163 2.16445 37.7809 2.16443 37.8632 2.24664C37.9455 2.24664 38.0278 2.24664 38.0278 2.24664C38.1923 2.24664 38.2746 2.32884 38.4392 2.32884C38.5215 2.32884 38.5214 2.32884 38.6037 2.32884C38.7683 2.32884 38.9329 2.41109 39.0974 2.41109L39.1797 2.41109C39.3443 2.41109 39.4266 2.49329 39.5911 2.49329C39.6734 2.49329 39.6734 2.49332 39.7557 2.57553C39.838 2.57553 40.0026 2.65773 40.0849 2.65773C40.1672 2.65773 40.1671 2.65771 40.2494 2.73993C40.3317 2.73993 40.4963 2.82218 40.5786 2.82218L40.6608 2.82218C40.8254 2.90439 40.99 2.9044 41.1546 2.98662L41.2368 2.98662C41.4014 3.06884 41.566 3.0688 41.6482 3.15101C41.7305 3.15101 41.7305 3.15104 41.8128 3.23326C41.8951 3.31548 42.0597 3.31549 42.142 3.39771C42.2243 3.39771 42.2242 3.4799 42.3065 3.4799C42.4711 3.56212 42.5534 3.56213 42.7179 3.64435C42.8002 3.64435 42.8002 3.64433 42.8825 3.72655C43.0471 3.80876 43.2117 3.89097 43.3762 3.97319C43.3762 3.97319 43.4585 3.97322 43.4585 4.05544C43.6231 4.13765 43.7054 4.13766 43.8699 4.21988L44.0345 4.30208C44.1168 4.3843 44.2813 4.38431 44.3636 4.46652C44.4459 4.46652 44.4459 4.54872 44.5282 4.54872C44.6928 4.63094 44.775 4.71315 44.9396 4.79536L45.0219 4.79536C45.2688 4.9598 45.5979 5.12426 45.8448 5.2887L52.2629 9.72841Z" stroke="#222834" stroke-width="2.0344" stroke-miterlimit="10"/>
<path d="M64.0294 34.0642C63.2065 50.7544 49.8765 65.3069 34.3247 66.7046C18.773 68.1023 6.84173 55.7696 7.74686 39.0795C8.65199 22.4716 21.8998 7.83685 37.4515 6.43916C53.0033 5.04146 64.9345 17.3741 64.0294 34.0642Z" fill="#F6D200" stroke="#222834" stroke-width="2.0344" stroke-miterlimit="10"/>
<path d="M37.8632 50.2597L37.6163 54.6172L34.325 54.4528L34.5718 50.2597C31.3627 49.8486 28.2359 48.5331 26.5079 46.7243L28.5651 42.1202C30.1285 43.6001 32.4324 44.8334 34.8186 45.1622L35.1478 38.667C31.5273 37.4338 27.4953 35.7894 27.8245 30.2808C28.0713 26.17 30.7044 22.7991 35.9706 22.388L36.2175 18.1127L39.5089 18.2771L39.262 22.4702C41.7305 22.7991 44.1168 23.7035 45.8448 25.1834L43.9522 29.8698C42.3065 28.6365 40.6608 27.8965 39.0151 27.5677L38.686 34.1451C42.3065 35.2961 46.2562 36.9405 45.927 42.4491C45.6802 46.3955 43.0471 49.7664 37.8632 50.2597ZM35.3946 32.9941L35.6415 27.4855C33.9135 27.8966 33.0907 28.9654 33.0907 30.1986C33.0084 31.5963 33.9958 32.4185 35.3946 32.9941ZM40.5785 42.6135C40.6608 41.298 39.7557 40.4758 38.3569 39.8181L38.11 45.1622C39.7557 44.8334 40.4963 43.8467 40.5785 42.6135Z" fill="#222834"/>
</svg>
