<svg width="72" height="68" viewBox="0 0 72 68" fill="none" xmlns="http://www.w3.org/2000/svg">
<path d="M69.5294 37.305C68.3775 24.1502 56.9399 12.3108 41.1413 9.10433C40.5653 9.02211 40.0716 8.93987 39.4957 8.77544C39.4134 8.77544 39.3311 8.77544 39.2488 8.77544C13.0824 4.50013 3.12597 23.5746 3.12597 23.5746C3.12597 23.5746 3.12599 23.739 3.04371 23.9857L1.64486 30.9742C1.56258 31.5497 1.4803 32.1252 1.39802 32.6185L1.39802 32.7007C1.31574 33.2762 1.31573 33.8517 1.23344 34.3451C1.23344 34.3451 1.23344 34.3451 1.23344 34.4273C0.410601 49.0621 12.4241 62.8745 29.7038 66.3277C30.1152 66.4099 30.5266 66.4921 30.9381 66.5744C49.1229 69.6164 66.1558 59.9969 69.2003 44.54L70.5991 37.5515L69.5294 37.305Z" fill="white"/>
<path d="M69.5294 37.305C68.3775 24.1502 56.9399 12.3108 41.1413 9.10433C40.5654 9.02211 40.0716 8.93987 39.4957 8.77544C39.4134 8.77544 39.3311 8.77544 39.2488 8.77544C13.0824 4.50013 3.12597 23.5746 3.12597 23.5746C3.12597 23.5746 3.12599 23.739 3.04371 23.9857L1.64486 30.9742C1.56258 31.5497 1.4803 32.1252 1.39802 32.6185L1.39802 32.7007C1.31574 33.2762 1.31573 33.8517 1.23344 34.3451C1.23344 34.3451 1.23344 34.3451 1.23344 34.4273C0.410598 49.0621 12.4241 62.8745 29.7038 66.3277C30.1152 66.4099 30.5266 66.4921 30.9381 66.5744C49.1229 69.6164 66.1558 59.9969 69.2003 44.54L70.5991 37.5515L69.5294 37.305Z" stroke="#222834" stroke-width="1.5895" stroke-miterlimit="10"/>
<path d="M70.5984 37.5519C73.7252 22.0128 61.6294 6.47377 43.5268 2.3629C43.1977 2.28068 42.8686 2.19842 42.5395 2.1162C34.887 0.554071 27.3991 1.29401 20.981 3.84275C20.981 3.84275 20.981 3.84277 20.981 3.76055C13.3285 6.8026 7.23946 12.3111 4.35951 19.5463C4.35951 19.6285 4.27725 19.7107 4.27725 19.793C4.11268 20.1218 4.0304 20.533 3.86582 20.8618C3.78354 21.0263 3.78353 21.1907 3.70125 21.3551C3.61896 21.684 3.53669 22.0128 3.4544 22.2595C3.37212 22.6706 3.2898 22.9995 3.20751 23.4105C3.20751 23.4928 3.12525 23.6572 3.12525 23.7394C3.12525 23.9039 3.04299 24.0683 3.04299 24.2327C2.96069 24.4794 2.96069 24.726 2.8784 25.0549C-0.330687 40.8406 12.2588 56.7086 30.8551 60.4906C49.5336 64.1904 67.2248 54.4065 70.3516 38.6208C70.4338 38.3741 70.4339 38.1275 70.5161 37.7986C70.5161 37.7986 70.5161 37.7163 70.5984 37.5519Z" fill="#F6D200" stroke="#222834" stroke-width="1.5895" stroke-miterlimit="10"/>
<path d="M37.8492 47.4996L37.4378 52.515L33.5704 52.1861L33.9818 47.3352C30.1967 46.7597 26.5762 45.0331 24.6014 42.8955L27.2345 37.6335C29.0448 39.4423 31.7601 40.9223 34.4755 41.4156L35.1338 33.9338C30.9373 32.3716 26.2471 30.3162 26.8231 23.9033C27.2345 19.1347 30.5259 15.3526 36.7795 15.0237L37.1909 10.0907L41.0583 10.4196L40.6468 15.2704C43.5268 15.7637 46.3245 16.9148 48.2993 18.6413L45.9131 23.9855C44.0205 22.5056 42.128 21.6011 40.1531 21.1901L39.4949 28.8363C43.6914 30.3984 48.2993 32.4539 47.8056 38.7024C47.3119 43.3888 44.0205 47.1708 37.8492 47.4996ZM35.6275 27.3564L36.2035 21.0257C34.0641 21.3545 33.159 22.5878 33.0767 24.0677C32.9121 25.6298 33.9818 26.6164 35.6275 27.3564ZM41.3874 38.7024C41.552 37.1403 40.4823 36.1537 38.8366 35.4137L38.3429 41.58C40.3177 41.2512 41.3051 40.1823 41.3874 38.7024Z" fill="#222834"/>
</svg>
