<svg width="129" height="149" viewBox="0 0 129 149" fill="none" xmlns="http://www.w3.org/2000/svg">
<path d="M76.5742 104.819C79.8656 108.025 126.521 140.254 126.521 140.254C126.521 140.254 103.563 154.56 86.6952 143.625L54.1928 116.247L76.5742 104.819Z" fill="#5DD5AB"/>
<path d="M76.5742 104.819C79.8656 108.025 126.521 140.254 126.521 140.254C126.521 140.254 103.563 154.56 86.6952 143.625L54.1929 116.247L76.5742 104.819Z" stroke="#222834" stroke-width="2.3965" stroke-miterlimit="10"/>
<path d="M86.614 143.627C85.8735 143.216 85.1329 142.805 84.3101 142.476C80.525 140.831 75.6702 139.927 72.0497 138.447C69.7458 137.46 67.4418 136.474 65.2201 135.487C60.4476 133.267 55.7574 130.883 51.2318 128.252C47.4467 126.032 43.6616 123.648 40.0411 121.181C29.2619 113.7 20.5397 103.587 14.2861 92.1586C9.6782 83.6902 6.46911 74.5641 4.82343 65.1091C3.75373 59.1072 2.76633 52.7765 2.10806 46.2813C0.544648 31.0711 1.28519 15.3675 9.5959 2.45935L85.3798 39.6217C85.3798 39.6217 32.7178 107.369 84.7215 142.476C85.2975 142.722 85.9557 143.133 86.614 143.627Z" fill="white" stroke="#222834" stroke-width="2.3965" stroke-miterlimit="10"/>
<path d="M51.3132 128.088C47.5282 125.868 43.743 123.484 40.1225 121.017C29.3433 113.535 20.6212 103.422 14.3675 91.9942C15.2727 91.5009 16.1778 91.0898 17.1652 90.7609C29.0142 87.2256 43.6608 101.367 49.9144 122.332C50.4081 124.306 50.9018 126.197 51.3132 128.088Z" fill="#5DD5AB" stroke="#222834" stroke-width="2.3965" stroke-miterlimit="10"/>
<path d="M16.9992 62.2321L12.885 60.67L14.6129 56.2302L18.5626 57.7102C20.2083 54.0926 22.6768 50.9683 24.8985 49.4061L29.4241 53.8459C27.0378 55.5725 24.7339 58.4501 23.5819 61.41C22.4299 64.452 22.8413 65.9319 24.0756 66.4252C28.1898 67.9873 30.8229 52.1193 40.4502 55.8191C44.4821 57.3813 46.8684 61.5743 45.305 67.9051L49.3369 69.4672L47.609 73.907L43.577 72.427C42.3427 75.058 40.5325 77.5246 38.5577 79.0867L33.9497 74.7291C36.2537 72.7559 37.8171 70.536 38.64 68.3161C39.7919 65.2741 39.216 63.712 37.8994 63.2187C33.9498 61.7388 31.3166 77.5245 21.7717 73.907C17.9866 72.4271 15.6826 68.3162 16.9992 62.2321Z" fill="#222834"/>
<path d="M84.3085 142.394C80.5234 140.749 75.6687 139.845 72.0481 138.365C69.7442 137.378 67.4402 136.392 65.2185 135.405C36.2544 100.134 61.7626 61.4095 61.7626 61.4095C39.6281 54.8321 53.9456 35.1 53.9456 35.1L28.1905 21.123C20.9495 33.1267 6.87894 33.0445 6.87894 33.0445L2.02414 46.117C0.46074 30.9068 1.20133 15.2033 9.51205 2.29517L85.2959 39.4574C85.2959 39.4574 32.6339 107.205 84.6376 142.311L84.3085 142.394Z" fill="#5DD5AB" stroke="#222834" stroke-width="2.3965" stroke-miterlimit="10"/>
</svg>
