<svg width="138" height="155" viewBox="0 0 138 155" fill="none" xmlns="http://www.w3.org/2000/svg">
<path d="M14.0249 67.5847L40.7673 149.227C40.7673 149.227 26.4499 156.379 21.1837 150.953L2.75199 84.357L14.0249 67.5847Z" fill="#5DD5AB"/>
<path d="M14.0249 67.5847L40.7673 149.227C40.7673 149.227 26.4499 156.379 21.1837 150.953L2.75199 84.357L14.0249 67.5847Z" stroke="#222834" stroke-width="2.3965" stroke-miterlimit="10"/>
<path d="M21.1823 148.734C21.1 148.405 19.2075 143.143 16.6567 135.415C10.8968 117.738 1.59862 87.2355 1.43405 73.5052C1.43405 72.1075 1.51633 70.8742 1.6809 69.8054C1.6809 69.8054 27.189 9.21115 121.322 2.22266L136.545 84.7689C136.545 84.7689 35.8289 89.3731 21.1823 148.734Z" fill="white" stroke="#222834" stroke-width="2.3965" stroke-miterlimit="10"/>
<path d="M21.1823 148.734C21.1 148.405 19.2075 143.143 16.6567 135.415C32.373 94.3884 100.916 78.1915 100.916 78.1915C99.6816 59.7748 117.702 52.0464 117.702 52.0464L113.505 26.1479C97.6244 25.0791 90.7126 15.1308 90.7126 15.1308C53.6023 17.1862 16.4098 55.9106 1.43405 73.5052C1.43405 72.1075 1.51633 70.8742 1.6809 69.8054C1.6809 69.8054 27.189 9.21115 121.322 2.22266L136.545 84.7689C136.545 84.7689 35.8289 89.3731 21.1823 148.734Z" fill="#5DD5AB" stroke="#222834" stroke-width="2.3965" stroke-miterlimit="10"/>
<path d="M9.53972 86.3658C11.4413 98.1563 20.5118 106.502 29.7993 105.007C39.0868 103.511 45.0743 92.7408 43.1728 80.9503C41.2712 69.1598 32.2007 60.814 22.9132 62.3094C13.6257 63.8048 7.63817 74.5753 9.53972 86.3658Z" fill="#5DD5AB" stroke="#222834" stroke-width="2.3965" stroke-miterlimit="10"/>
<path d="M60.7609 44.9753L59.1152 40.8645L63.5585 39.1378L65.1219 43.0843C68.907 41.851 72.8567 41.5222 75.5721 42.1799L75.3252 48.5106C72.4452 47.9351 68.8247 48.1818 65.7802 49.3328C62.7357 50.5661 61.9129 51.8815 62.4066 53.1148C64.0523 57.2257 77.4646 48.4284 81.332 57.9656C82.9777 61.9943 81.4142 66.5985 75.7366 69.7228L77.3823 73.7514L72.939 75.478L71.3756 71.5315C68.5779 72.3537 65.6157 72.7648 63.0648 72.3537L63.1471 66.023C66.1094 66.3519 68.8248 66.023 71.0464 65.2008C74.091 63.9676 74.8315 62.4876 74.2555 61.2543C72.6921 57.3079 59.2798 66.1052 55.4947 56.568C53.849 52.5393 55.3301 48.0996 60.7609 44.9753Z" fill="#222834"/>
</svg>
