<svg width="355" height="399" viewBox="0 0 355 399" fill="none" xmlns="http://www.w3.org/2000/svg">
<g clip-path="url(#clip0_1_6279)">
<path d="M346.562 276.262L195.062 13.8564C190.644 6.20372 180.858 3.58172 173.206 8L13.8569 100C6.20425 104.418 3.58225 114.204 8.00053 121.856L159.501 384.262C163.919 391.915 173.704 394.537 181.357 390.119L340.706 298.119C348.358 293.7 350.98 283.915 346.562 276.262Z" fill="#222834"/>
<mask id="mask0_1_6279" style="mask-type:alpha" maskUnits="userSpaceOnUse" x="5" y="5" width="344" height="388">
<path d="M346.562 276.262L195.062 13.8564C190.644 6.20372 180.858 3.58172 173.206 8L13.8569 100C6.20425 104.418 3.58225 114.204 8.00053 121.856L159.501 384.262C163.919 391.915 173.704 394.537 181.357 390.119L340.706 298.119C348.358 293.7 350.98 283.915 346.562 276.262Z" fill="#222834"/>
</mask>
<g mask="url(#mask0_1_6279)">
<path d="M157.572 156.818C149.456 154.554 143.727 150.286 143.727 150.286C143.42 150.116 143.113 149.945 142.828 149.693C138.358 146.644 131.848 141.506 126.108 134.812C123.436 131.628 121.129 128.234 119.142 124.794C112.19 112.753 109.252 100.201 108.125 95.3611C101.685 68.0811 108.019 44.7549 110.036 37.057L110.08 36.8926C121.081 -3.8627 150.316 -25.1898 159.22 -28.6622" stroke="white" stroke-width="11" stroke-miterlimit="10" stroke-linecap="round" stroke-linejoin="round"/>
<path d="M218.131 92.8714C240.434 79.9949 264.119 121.019 241.816 133.895" stroke="white" stroke-width="11" stroke-miterlimit="10" stroke-linecap="round" stroke-linejoin="round"/>
<path d="M222.632 -7.51696C220.977 -10.384 227.158 -0.399691 227.369 -0.0348024L296.95 120.483C299.204 123.907 314.93 149.579 309.529 179.456C305.904 199.411 293.853 216.447 273.778 230.053C273.674 230.113 273.517 230.203 273.413 230.263L206.732 271.333C206.68 271.363 206.576 271.423 206.472 271.483C194.659 278.581 181.412 275.734 180.703 275.588C179.253 275.243 172.005 273.52 164.954 267.444C159.948 263.106 157.36 258.623 155.945 256.173C141.259 230.735 155.583 206.688 169.861 198.444C189.037 187.373 208.214 176.302 227.39 165.23" stroke="white" stroke-width="11" stroke-miterlimit="10" stroke-linecap="round" stroke-linejoin="round"/>
<path d="M220.949 6.1748C211.131 11.913 199.144 15.2195 189.012 14.3972C168.56 12.7906 146.59 -6.00919 149.503 -18.5335C150.469 -22.6361 154.118 -26.0634 159.115 -28.6007C167.15 -32.6142 178.749 -34.3065 188.548 -32.7363C215.095 -28.3939 226.487 -0.358711 227.348 1.85476C226.783 2.32003 225.905 2.96583 224.871 3.70187C223.629 4.55826 222.304 5.39259 220.949 6.1748Z" fill="white" stroke="white" stroke-width="11" stroke-miterlimit="10" stroke-linecap="round" stroke-linejoin="round"/>
<path d="M191.512 163.147C178.883 161.612 167.505 159.354 157.515 156.851" stroke="white" stroke-width="11" stroke-miterlimit="10" stroke-linecap="round" stroke-linejoin="round"/>
</g>
<path d="M42.526 115.593C42.3256 116.633 41.7727 117.414 40.8674 117.936C39.9621 118.459 39.0192 118.554 38.0387 118.221C37.0436 117.884 36.2553 117.212 35.674 116.205C35.21 115.401 35.0045 114.566 35.0575 113.697C35.1251 112.833 35.4307 112.072 35.9742 111.413L37.3376 112.751C37.0548 113.135 36.8959 113.554 36.8609 114.005C36.8404 114.46 36.9529 114.9 37.1982 115.325C37.5075 115.861 37.9186 116.221 38.4315 116.405C38.9589 116.593 39.4535 116.554 39.9154 116.287C40.405 116.005 40.6922 115.574 40.7769 114.996C40.8656 114.403 40.7419 113.815 40.4059 113.233L38.9179 110.656L43.8872 108.415L46.7992 113.459L45.3304 114.307L43.1864 110.593L41.3227 111.429L41.9307 112.482C42.5227 113.507 42.7211 114.544 42.526 115.593ZM48.1182 121.695C48.4692 121.492 48.6668 121.163 48.7111 120.706C48.7646 120.244 48.6474 119.764 48.3594 119.265C48.1247 118.858 47.8336 118.546 47.486 118.328C47.1529 118.114 46.8105 118.022 46.4587 118.053L46.3195 116.212C47.0153 116.18 47.6783 116.357 48.3085 116.745C48.9532 117.136 49.4809 117.687 49.8916 118.399C50.4409 119.35 50.6436 120.299 50.4996 121.244C50.3503 122.18 49.8877 122.872 49.1117 123.32C48.2988 123.789 47.435 123.808 46.5201 123.375C46.4818 124.567 46.0007 125.43 45.077 125.964C44.264 126.433 43.395 126.485 42.4699 126.12C41.5555 125.774 40.8076 125.097 40.2262 124.09C39.7622 123.286 39.5363 122.468 39.5485 121.636C39.5752 120.808 39.8295 120.107 40.3111 119.533L41.7315 120.745C41.4761 121.028 41.3474 121.392 41.3454 121.836C41.3488 122.29 41.4838 122.748 41.7505 123.21C42.0545 123.736 42.4371 124.101 42.8984 124.302C43.3651 124.513 43.797 124.504 44.1942 124.275C44.573 124.056 44.7903 123.696 44.8463 123.196C44.9076 122.705 44.789 122.201 44.4903 121.683L44.0823 120.977L45.5234 120.145L45.8034 120.63C46.0967 121.138 46.4621 121.493 46.8996 121.697C47.3425 121.909 47.7487 121.908 48.1182 121.695ZM52.5108 129.623C52.8988 129.399 53.1315 129.056 53.2088 128.592C53.29 128.114 53.2053 127.658 52.9546 127.224C52.7146 126.808 52.3739 126.506 51.9325 126.318C51.4911 126.129 50.998 126.075 50.4533 126.156L50.312 124.279C51.1808 124.184 51.9845 124.317 52.723 124.679C53.4669 125.05 54.0522 125.605 54.4788 126.344C55.0122 127.268 55.1758 128.202 54.9696 129.146C54.7833 130.104 54.2976 130.809 53.5124 131.262C53.0321 131.54 52.4472 131.668 51.7578 131.647C51.0684 131.626 50.1838 131.46 49.1042 131.147L46.0538 130.248L48.4058 134.321L46.8816 135.201L43.1056 128.661L44.2973 127.973L49.5951 129.533C50.9754 129.919 51.9474 129.949 52.5108 129.623ZM56.9796 137.364C57.3676 137.14 57.6002 136.796 57.6775 136.332C57.7588 135.854 57.674 135.398 57.4234 134.964C57.1834 134.549 56.8427 134.246 56.4013 134.058C55.9598 133.869 55.4668 133.815 54.922 133.896L54.7807 132.019C55.6495 131.924 56.4532 132.057 57.1918 132.419C57.9356 132.79 58.5209 133.345 58.9476 134.084C59.4809 135.008 59.6445 135.942 59.4383 136.886C59.2521 137.844 58.7664 138.549 57.9812 139.002C57.5008 139.28 56.9159 139.408 56.2265 139.387C55.5371 139.366 54.6526 139.2 53.5729 138.887L50.5226 137.988L52.8746 142.061L51.3504 142.941L47.5744 136.401L48.766 135.713L54.0639 137.273C55.4442 137.659 56.4161 137.689 56.9796 137.364ZM63.4327 148.541C63.8207 148.317 64.0534 147.973 64.1307 147.51C64.2119 147.032 64.1272 146.576 63.8765 146.141C63.6365 145.726 63.2958 145.424 62.8544 145.235C62.413 145.046 61.9199 144.992 61.3752 145.073L61.2338 143.196C62.1027 143.101 62.9063 143.234 63.6449 143.596C64.3888 143.967 64.974 144.522 65.4007 145.261C65.934 146.185 66.0976 147.119 65.8915 148.063C65.7052 149.021 65.2195 149.726 64.4343 150.179C63.9539 150.457 63.3691 150.585 62.6797 150.564C61.9903 150.544 61.1057 150.377 60.026 150.064L56.9757 149.165L59.3277 153.239L57.8035 154.119L54.0275 147.578L55.2192 146.89L60.517 148.45C61.8973 148.836 62.8692 148.866 63.4327 148.541ZM67.1041 158.164C66.9037 159.203 66.3508 159.984 65.4455 160.507C64.5402 161.03 63.5973 161.124 62.6168 160.791C61.6217 160.455 60.8335 159.783 60.2521 158.776C59.7881 157.972 59.5826 157.136 59.6357 156.268C59.7033 155.404 60.0088 154.642 60.5523 153.984L61.9157 155.321C61.6329 155.706 61.4741 156.124 61.439 156.575C61.4186 157.031 61.531 157.471 61.7763 157.896C62.0857 158.431 62.4967 158.792 63.0096 158.976C63.537 159.164 64.0316 159.125 64.4935 158.858C64.9831 158.575 65.2703 158.145 65.355 157.566C65.4437 156.973 65.32 156.386 64.984 155.804L63.496 153.226L68.4653 150.985L71.3773 156.029L69.9085 156.877L67.7645 153.164L65.9008 153.999L66.5088 155.053C67.1008 156.078 67.2992 157.115 67.1041 158.164ZM64.7774 162.39L66.3459 163.443C66.1225 163.781 66.0118 164.165 66.0137 164.595C66.021 165.034 66.1446 165.462 66.3846 165.877C66.7259 166.469 67.1821 166.864 67.7533 167.064C68.3244 167.264 68.8594 167.22 69.3582 166.932L70.0649 166.524C69.3438 166.214 68.7779 165.703 68.3672 164.991C67.8019 164.012 67.632 163.014 67.8577 161.997C68.0887 160.989 68.6523 160.227 69.5483 159.709C70.4444 159.192 71.3819 159.088 72.361 159.397C73.3508 159.725 74.1284 160.378 74.6937 161.357C75.259 162.336 75.4308 163.327 75.209 164.33C75.0018 165.336 74.4502 166.098 73.5542 166.616L70.2979 168.496C69.3464 169.045 68.352 169.157 67.3146 168.832C66.2811 168.493 65.4657 167.806 64.8684 166.771C64.447 166.042 64.2274 165.288 64.2093 164.51C64.2006 163.727 64.3899 163.02 64.7774 162.39ZM69.8994 164.125C70.1874 164.624 70.5851 164.961 71.0927 165.136C71.6186 165.3 72.108 165.252 72.5606 164.991C73.0317 164.719 73.3256 164.321 73.4424 163.798C73.5591 163.275 73.4682 162.755 73.1695 162.237C72.8708 161.72 72.4658 161.381 71.9544 161.221C71.4522 161.055 70.9702 161.105 70.5083 161.372C70.0372 161.644 69.7433 162.042 69.6265 162.565C69.5098 163.088 69.6007 163.608 69.8994 164.125ZM79.5809 173.886L78.0044 172.819C78.4444 172.11 78.4271 171.344 77.9524 170.522C77.6271 169.958 77.1842 169.586 76.6238 169.404C76.0686 169.232 75.537 169.293 75.029 169.586L74.253 170.034C74.9318 170.356 75.4846 170.887 75.9113 171.626C76.4766 172.605 76.6537 173.605 76.4426 174.626C76.2354 175.633 75.6884 176.392 74.8016 176.904C73.9332 177.405 73.0088 177.49 72.0283 177.157C71.0623 176.827 70.294 176.169 69.7233 175.18C69.142 174.173 68.9576 173.171 69.1701 172.174C69.3866 171.162 69.929 170.406 70.7973 169.904L74.0813 168.008C75.0327 167.459 76.0245 167.342 77.0566 167.658C78.0886 167.973 78.9006 168.644 79.4926 169.669C79.8926 170.362 80.0937 171.084 80.0957 171.834C80.1123 172.588 79.9407 173.272 79.5809 173.886ZM74.6738 174.059C74.7813 173.541 74.6831 173.019 74.3791 172.492C74.0751 171.966 73.6693 171.615 73.1618 171.44C72.6635 171.26 72.1973 171.295 71.7631 171.545C71.3105 171.807 71.0331 172.201 70.9309 172.728C70.838 173.25 70.9435 173.774 71.2475 174.3C71.5462 174.818 71.9446 175.166 72.4429 175.347C72.9412 175.527 73.4074 175.492 73.8416 175.241C74.2942 174.98 74.5716 174.586 74.6738 174.059ZM83.9483 184.075C84.3363 183.851 84.569 183.507 84.6463 183.044C84.7275 182.566 84.6428 182.11 84.3921 181.675C84.1521 181.26 83.8114 180.958 83.37 180.769C82.9286 180.581 82.4355 180.526 81.8908 180.607L81.7495 178.73C82.6183 178.635 83.422 178.768 84.1605 179.13C84.9044 179.501 85.4897 180.056 85.9163 180.795C86.4497 181.719 86.6133 182.653 86.4071 183.597C86.2208 184.555 85.7351 185.26 84.9499 185.714C84.4696 185.991 83.8847 186.119 83.1953 186.098C82.5059 186.078 81.6213 185.911 80.5417 185.598L77.4913 184.699L79.8433 188.773L78.3191 189.653L74.5431 183.112L75.7348 182.424L81.0326 183.985C82.4129 184.37 83.3849 184.4 83.9483 184.075ZM87.7653 188.958L85.9441 187.756L86.9596 186.282L89.997 188.279L90.645 189.402L81.2919 194.802L80.3799 193.222L87.7653 188.958ZM91.1041 199.733C90.9037 200.772 90.3508 201.554 89.4455 202.076C88.5402 202.599 87.5973 202.694 86.6168 202.361C85.6217 202.024 84.8335 201.352 84.2521 200.345C83.7881 199.541 83.5826 198.705 83.6357 197.837C83.7033 196.973 84.0088 196.211 84.5523 195.553L85.9157 196.89C85.6329 197.275 85.4741 197.693 85.439 198.145C85.4186 198.6 85.531 199.04 85.7763 199.465C86.0857 200.001 86.4967 200.361 87.0096 200.545C87.537 200.733 88.0316 200.694 88.4935 200.427C88.9831 200.145 89.2703 199.714 89.355 199.135C89.4437 198.542 89.32 197.955 88.984 197.373L87.496 194.796L92.4653 192.555L95.3773 197.598L93.9085 198.446L91.7645 194.733L89.9008 195.569L90.5088 196.622C91.1008 197.647 91.2992 198.684 91.1041 199.733ZM96.6963 205.835C97.0473 205.632 97.245 205.303 97.2892 204.846C97.3428 204.384 97.2255 203.904 96.9375 203.405C96.7028 202.998 96.4117 202.686 96.0641 202.468C95.7311 202.254 95.3886 202.162 95.0368 202.193L94.8977 200.352C95.5934 200.319 96.2564 200.497 96.8866 200.884C97.5313 201.276 98.059 201.827 98.4697 202.539C99.019 203.49 99.2217 204.438 99.0778 205.384C98.9284 206.32 98.4658 207.012 97.6899 207.46C96.8769 207.929 96.0131 207.948 95.0982 207.515C95.0599 208.707 94.5788 209.57 93.6551 210.103C92.8422 210.573 91.9732 210.625 91.048 210.26C90.1336 209.913 89.3857 209.237 88.8044 208.23C88.3404 207.426 88.1145 206.608 88.1266 205.776C88.1534 204.947 88.4076 204.246 88.8893 203.673L90.3097 204.885C90.0542 205.168 89.9255 205.532 89.9236 205.976C89.9269 206.43 90.0619 206.888 90.3286 207.35C90.6326 207.876 91.0152 208.24 91.4766 208.442C91.9432 208.653 92.3751 208.644 92.7724 208.414C93.1511 208.196 93.3685 207.836 93.4245 207.336C93.4858 206.845 93.3671 206.341 93.0684 205.823L92.6604 205.117L94.1015 204.285L94.3815 204.77C94.6748 205.278 95.0403 205.633 95.4778 205.836C95.9206 206.049 96.3268 206.048 96.6963 205.835ZM103.073 217.2C103.461 216.976 103.694 216.633 103.771 216.169C103.853 215.691 103.768 215.235 103.517 214.801C103.277 214.385 102.936 214.083 102.495 213.895C102.054 213.706 101.561 213.652 101.016 213.732L100.874 211.856C101.743 211.761 102.547 211.894 103.286 212.256C104.029 212.627 104.615 213.182 105.041 213.921C105.575 214.845 105.738 215.779 105.532 216.723C105.346 217.68 104.86 218.386 104.075 218.839C103.595 219.116 103.01 219.245 102.32 219.224C101.631 219.203 100.746 219.036 99.6667 218.724L96.6163 217.824L98.9683 221.898L97.4441 222.778L93.6681 216.238L94.8598 215.55L100.158 217.11C101.538 217.496 102.51 217.526 103.073 217.2ZM107.681 224.86C108.032 224.658 108.229 224.328 108.274 223.871C108.327 223.409 108.21 222.929 107.922 222.43C107.687 222.024 107.396 221.711 107.048 221.493C106.715 221.279 106.373 221.187 106.021 221.218L105.882 219.377C106.578 219.345 107.241 219.522 107.871 219.91C108.516 220.301 109.043 220.853 109.454 221.564C110.003 222.515 110.206 223.464 110.062 224.409C109.913 225.345 109.45 226.037 108.674 226.485C107.861 226.955 106.997 226.973 106.083 226.54C106.044 227.733 105.563 228.595 104.639 229.129C103.827 229.598 102.958 229.65 102.032 229.285C101.118 228.939 100.37 228.262 99.7887 227.255C99.3247 226.451 99.0988 225.634 99.111 224.801C99.1377 223.973 99.392 223.272 99.8736 222.698L101.294 223.91C101.039 224.193 100.91 224.557 100.908 225.002C100.911 225.455 101.046 225.913 101.313 226.375C101.617 226.902 102 227.266 102.461 227.468C102.928 227.678 103.36 227.669 103.757 227.44C104.135 227.221 104.353 226.862 104.409 226.361C104.47 225.87 104.351 225.366 104.053 224.849L103.645 224.142L105.086 223.31L105.366 223.795C105.659 224.303 106.025 224.659 106.462 224.862C106.905 225.074 107.311 225.074 107.681 224.86ZM114.386 234.17L112.809 233.103C113.249 232.393 113.232 231.627 112.757 230.805C112.432 230.242 111.989 229.869 111.428 229.688C110.873 229.516 110.342 229.576 109.834 229.869L109.058 230.317C109.737 230.64 110.289 231.171 110.716 231.91C111.281 232.889 111.458 233.889 111.247 234.91C111.04 235.916 110.493 236.676 109.606 237.188C108.738 237.689 107.813 237.773 106.833 237.44C105.867 237.111 105.099 236.452 104.528 235.464C103.947 234.457 103.762 233.455 103.975 232.458C104.191 231.446 104.734 230.689 105.602 230.188L108.886 228.292C109.837 227.743 110.829 227.626 111.861 227.941C112.893 228.257 113.705 228.927 114.297 229.953C114.697 230.646 114.898 231.367 114.9 232.117C114.917 232.871 114.745 233.555 114.386 234.17ZM109.478 234.342C109.586 233.824 109.488 233.302 109.184 232.776C108.88 232.249 108.474 231.898 107.966 231.723C107.468 231.543 107.002 231.578 106.568 231.829C106.115 232.09 105.838 232.484 105.736 233.011C105.643 233.533 105.748 234.057 106.052 234.584C106.351 235.101 106.749 235.45 107.248 235.63C107.746 235.811 108.212 235.775 108.646 235.525C109.099 235.263 109.376 234.869 109.478 234.342ZM109.944 238.413C110.416 238.141 110.922 238.015 111.463 238.035C112.004 238.056 112.527 238.215 113.033 238.515C113.086 237.412 113.538 236.616 114.388 236.125C115.127 235.699 115.927 235.655 116.788 235.995C117.645 236.326 118.345 236.963 118.889 237.905C119.433 238.847 119.629 239.775 119.479 240.687C119.342 241.603 118.905 242.274 118.166 242.701C117.316 243.192 116.4 243.185 115.419 242.68C115.426 243.267 115.302 243.8 115.049 244.279C114.796 244.758 114.434 245.133 113.963 245.405C113.168 245.864 112.316 245.912 111.405 245.551C110.495 245.19 109.751 244.511 109.175 243.513C108.599 242.516 108.383 241.532 108.525 240.563C108.677 239.589 109.15 238.872 109.944 238.413ZM111.043 239.996C110.646 240.225 110.412 240.588 110.341 241.085C110.276 241.59 110.396 242.107 110.7 242.633C111.004 243.16 111.384 243.519 111.839 243.712C112.31 243.908 112.744 243.892 113.141 243.662C113.538 243.433 113.765 243.068 113.821 242.568C113.892 242.071 113.775 241.56 113.471 241.033C113.167 240.507 112.78 240.145 112.309 239.949C111.853 239.756 111.431 239.772 111.043 239.996ZM115.223 237.86C114.872 238.063 114.664 238.386 114.6 238.829C114.551 239.277 114.659 239.731 114.926 240.193C115.192 240.655 115.532 240.976 115.944 241.157C116.366 241.333 116.752 241.319 117.103 241.116C117.445 240.919 117.64 240.597 117.69 240.149C117.74 239.702 117.631 239.247 117.364 238.785C117.098 238.323 116.758 238.002 116.346 237.821C115.939 237.65 115.565 237.663 115.223 237.86Z" fill="white"/>
<path d="M106.112 121.792L86.6123 88.0167C84.9555 85.147 81.2859 84.1637 78.4162 85.8206L60.2296 96.3206C57.3599 97.9774 56.3766 101.647 58.0335 104.517L77.5335 138.292C79.1903 141.161 82.8599 142.145 85.7296 140.488L103.916 129.988C106.786 128.331 107.769 124.661 106.112 121.792Z" fill="#F6D200"/>
<path d="M90.7689 116.216C94.1169 114.283 95.2641 110.002 93.3311 106.654C91.3981 103.306 87.1169 102.159 83.7689 104.092L73.3766 110.092C70.0285 112.025 68.8814 116.306 70.8144 119.654C72.7474 123.002 77.0285 124.149 80.3766 122.216L90.7689 116.216Z" fill="#F6D200" stroke="black"/>
<path d="M85.823 119.649L94.823 135.238" stroke="black"/>
<path d="M69.323 91.0706L78.323 106.659" stroke="black"/>
<path d="M88.3622 91.0479L59.7834 107.548" stroke="black"/>
<path d="M104.862 119.627L76.2834 136.127" stroke="black"/>
</g>
<defs>
<clipPath id="clip0_1_6279">
<rect width="355" height="399" fill="white"/>
</clipPath>
</defs>
</svg>
