<svg width="726" height="424" viewBox="0 0 726 424" fill="none" xmlns="http://www.w3.org/2000/svg">
<path d="M201.153 93.8285C459.307 218.113 527.574 394.283 683.34 304.366L721.179 369.906C590.03 445.625 479.981 475.048 180.673 175.988C175.139 235.354 123.479 244.891 84.2129 228.317C51.9625 214.705 28.0724 183.477 44.9643 147.776C24.3001 137.953 14.0318 126.192 11.4626 114.371C2.70333 74.0684 83.4325 33.056 146.789 65.6834C135.427 32.7453 158.244 18.7531 179.575 22.8975C201.769 27.2098 222.354 51.1574 201.153 93.8285Z" fill="#F7A800"/>
<path d="M171.902 80.4549C191.637 92.99 179.49 83.3995 201.153 93.8285M201.153 93.8285C459.307 218.113 527.574 394.283 683.34 304.366L721.179 369.906C590.03 445.625 479.981 475.048 180.673 175.988M201.153 93.8285C242.73 10.147 123.605 -1.52675 146.789 65.6834C64.8489 23.4858 -46.1497 104.463 44.9643 147.776M44.9643 147.776C55.0657 131.356 61.4022 124.632 73.6895 116.27M44.9643 147.776C7.50583 226.946 170.593 284.112 180.673 175.988M180.673 175.988L124.69 152.896M36.0033 99.6579C20.9856 106.293 3.77005 113.259 3.17919 135.829M92.8734 206.751C88.1465 232.749 73.6895 235.555 73.6895 241.464M180.673 42.0492C180.673 18.4149 177.534 11.9457 171.902 3.32897M261.268 197.888L219.908 160.959M317.4 197.888L289.334 175.988M331.433 241.464C324.342 240.873 307.798 241.218 300.412 241.464M376.485 256.974L360.975 226.692M397.904 291.687C380.769 291.096 357.283 287.994 347.681 286.517M431.14 309.413C429.17 298.826 424.788 277.063 423.016 274.7M467.33 335.263C455.513 336.001 422.277 335.263 417.107 335.263M509.429 360.374L498.35 318.275" stroke="#172647" stroke-width="6" stroke-linecap="round"/>
</svg>
