<svg width="24" height="24" viewBox="0 0 24 24" fill="none" xmlns="http://www.w3.org/2000/svg">
<path d="M6.78261 4H6.34783C5.19471 4 4.08882 4.43899 3.27345 5.22039C2.45807 6.00179 2 7.0616 2 8.16667V17.4343C2 18.299 2.701 19 3.56573 19V19C4.19738 19 4.76718 18.6204 5.01056 18.0376L5.54087 16.7675C5.77933 16.1966 6.19079 15.7073 6.72218 15.3626C7.25356 15.0179 7.88051 14.8337 8.52217 14.8337C9.16383 14.8337 9.79078 15.0179 10.3222 15.3626C10.8536 15.7073 11.265 16.1966 11.5035 16.7675L12.0332 18.0372C12.2764 18.6203 12.8462 19 13.478 19V19C14.3426 19 15.0435 18.2991 15.0435 17.4345V13.5833C15.0435 13.2518 15.1809 12.9339 15.4255 12.6994C15.6701 12.465 16.0019 12.3333 16.3478 12.3333C16.6938 12.3333 17.0255 12.465 17.2701 12.6994C17.5148 12.9339 17.6522 13.2518 17.6522 13.5833V16.9167C17.6522 17.4692 17.8812 17.9991 18.2889 18.3898C18.6966 18.7805 19.2495 19 19.8261 19H20.75C21.4404 19 22 18.4404 22 17.75V17.3696C22 16.8893 21.6107 16.5 21.1304 16.5V16.5C20.6502 16.5 20.2609 16.1107 20.2609 15.6304V8.16667C20.2609 7.0616 19.8028 6.00179 18.9874 5.22039C18.172 4.43899 17.0662 4 15.913 4H13.9565C11.1951 4 8.95652 6.23858 8.95652 9V9C8.95652 9.27359 9.01275 9.5445 9.122 9.79726C9.23125 10.05 9.39138 10.2797 9.59325 10.4731C10.0009 10.8638 10.5539 11.0833 11.1304 11.0833V11.0833C11.3907 11.0833 11.6225 10.9185 11.708 10.6726L12.3191 8.91417C12.4794 8.45374 12.7867 8.0533 13.1976 7.76958C13.6086 7.48586 14.1022 7.33324 14.6087 7.33333M17.6522 9.41667V7.75" stroke="#0055FF" stroke-width="2"/>
</svg>
