<svg width="24" height="24" viewBox="0 0 24 24" fill="none" xmlns="http://www.w3.org/2000/svg">
<path d="M7.32 6.5C6.992 6.5 6.677 6.63 6.443 6.86L3.768 9.5H8.25C9.598 9.5 10.72 10.47 10.955 11.75H13.045C13.1619 11.118 13.4964 10.5468 13.9906 10.1358C14.4847 9.72476 15.1072 9.4998 15.75 9.5H20.232L17.557 6.86C17.323 6.62926 17.0076 6.49993 16.679 6.5H15.25C15.0511 6.5 14.8603 6.42098 14.7197 6.28033C14.579 6.13968 14.5 5.94891 14.5 5.75C14.5 5.55109 14.579 5.36032 14.7197 5.21967C14.8603 5.07902 15.0511 5 15.25 5H16.68C17.4029 5.00026 18.0966 5.28515 18.611 5.793L23.032 10.156C23.135 10.243 23.232 10.338 23.32 10.44L23.347 10.466L23.345 10.468C23.753 10.948 24 11.57 24 12.25V16.25C24 17.2446 23.6049 18.1984 22.9017 18.9017C22.1984 19.6049 21.2446 20 20.25 20H16.75C15.7554 20 14.8016 19.6049 14.0983 18.9017C13.3951 18.1984 13 17.2446 13 16.25V13.25H11V16.25C11 17.2446 10.6049 18.1984 9.90165 18.9017C9.19839 19.6049 8.24456 20 7.25 20H3.75C2.75544 20 1.80161 19.6049 1.09835 18.9017C0.395088 18.1984 0 17.2446 0 16.25V12.25C0 11.57 0.247 10.948 0.655 10.468L0.653 10.466L0.68 10.44C0.769 10.338 0.865 10.243 0.968 10.156L5.389 5.793C5.90367 5.2849 6.59778 5 7.321 5H8.75C8.94891 5 9.13968 5.07902 9.28033 5.21967C9.42098 5.36032 9.5 5.55109 9.5 5.75C9.5 5.94891 9.42098 6.13968 9.28033 6.28033C9.13968 6.42098 8.94891 6.5 8.75 6.5H7.32ZM22.026 11.27C21.8054 11.0947 21.5318 10.9995 21.25 11H15.75C15.06 11 14.5 11.56 14.5 12.25V16.25C14.5 16.8467 14.7371 17.419 15.159 17.841C15.581 18.2629 16.1533 18.5 16.75 18.5H20.25C20.8467 18.5 21.419 18.2629 21.841 17.841C22.2629 17.419 22.5 16.8467 22.5 16.25V12.25C22.5 11.951 22.395 11.677 22.22 11.461L22.026 11.27ZM1.974 11.27L1.78 11.461C1.605 11.677 1.5 11.951 1.5 12.25V16.25C1.5 16.8467 1.73705 17.419 2.15901 17.841C2.58097 18.2629 3.15326 18.5 3.75 18.5H7.25C7.84674 18.5 8.41903 18.2629 8.84099 17.841C9.26295 17.419 9.5 16.8467 9.5 16.25V12.25C9.5 11.56 8.94 11 8.25 11H2.75C2.457 11 2.187 11.1 1.974 11.27Z" fill="#0055FF"/>
</svg>
