<svg width="24" height="24" viewBox="0 0 24 24" fill="none" xmlns="http://www.w3.org/2000/svg">
<g clip-path="url(#clip0_1_1039)">
<path d="M14.9685 23.8092L9.1335 21.5108H1.2105C0.8665 21.5108 0.5785 21.3947 0.3465 21.1624C0.1155 20.9311 0 20.6445 0 20.3026V17.0247C0 15.3579 0.582 13.9443 1.746 12.7839C2.91 11.6235 4.328 11.0433 6 11.0433H22.0875C22.6195 11.0433 23.0715 11.2227 23.4435 11.5816C23.8145 11.9425 24 12.3861 24 12.9125C24 13.3591 23.8685 13.7484 23.6055 14.0804C23.3415 14.4133 23.001 14.6411 22.584 14.7638L18.288 15.9167V21.5692C18.288 21.9939 18.193 22.3787 18.003 22.7236C17.813 23.0685 17.557 23.3526 17.235 23.576C16.909 23.7973 16.5525 23.9328 16.1655 23.9827C15.7785 24.0325 15.3795 23.9747 14.9685 23.8092ZM12.3 17.0247H7.7745C7.4645 17.0247 7.213 17.1224 7.02 17.3178C6.827 17.5132 6.708 17.7306 6.663 17.9698C6.619 18.2091 6.6525 18.4523 6.7635 18.6996C6.8735 18.9458 7.0805 19.1227 7.3845 19.2304L15.519 22.4305C15.827 22.5451 16.1155 22.5117 16.3845 22.3303C16.6545 22.1479 16.7895 21.8937 16.7895 21.5677V17.0247H12.3ZM1.4985 20.0155H6.2925C5.9545 19.8081 5.6765 19.542 5.4585 19.217C5.2415 18.892 5.133 18.5396 5.133 18.1597C5.133 17.44 5.3925 16.8219 5.9115 16.3055C6.4305 15.7891 7.0505 15.5299 7.7715 15.5279H13.7115L22.2 13.3237C22.325 13.2739 22.4125 13.2116 22.4625 13.1368C22.5125 13.062 22.525 12.9748 22.5 12.8751C22.475 12.7754 22.431 12.6942 22.368 12.6314C22.305 12.5686 22.2115 12.5377 22.0875 12.5387H6C4.75 12.5387 3.6875 12.9748 2.8125 13.8471C1.9375 14.7194 1.5 15.7786 1.5 17.0247L1.4985 20.0155ZM9 8.9722C7.763 8.9722 6.7035 8.53306 5.8215 7.65478C4.9395 6.7765 4.499 5.72028 4.5 4.4861C4.5 3.25292 4.9405 2.1967 5.8215 1.31742C6.7025 0.438144 7.762 -0.000995218 9 1.69351e-06C10.238 1.69351e-06 11.2975 0.439141 12.1785 1.31742C13.0595 2.1957 13.5 3.25193 13.5 4.4861C13.5 5.72028 13.0595 6.7765 12.1785 7.65478C11.2975 8.53306 10.238 8.9722 9 8.9722ZM9 7.47683C9.825 7.47683 10.5315 7.18424 11.1195 6.59905C11.7075 6.01387 12.001 5.30955 12 4.4861C12 3.66365 11.7065 2.95983 11.1195 2.37464C10.5325 1.78946 9.826 1.49637 9 1.49537C8.175 1.49537 7.469 1.78846 6.882 2.37464C6.295 2.96083 6.001 3.66465 6 4.4861C6 5.30855 6.294 6.01287 6.882 6.59905C7.47 7.18524 8.176 7.47783 9 7.47683Z" fill="#0055FF"/>
</g>
<defs>
<clipPath id="clip0_1_1039">
<rect width="24" height="24" fill="white"/>
</clipPath>
</defs>
</svg>
