<svg width="21" height="24" viewBox="0 0 21 24" fill="none" xmlns="http://www.w3.org/2000/svg">
<path d="M14.9482 18.1453L14.8872 18.114C14.4537 17.8919 14.0991 17.6299 13.8071 17.3408C14.0182 17.6542 14.1414 18.0317 14.1414 18.4379V18.5914C14.1414 19.6666 13.2787 20.5402 12.2077 20.558L12.2078 20.6005C12.2092 21.7293 11.2944 22.6451 10.1656 22.6451H10.1425C9.00353 22.6451 8.09896 21.7108 8.10059 20.5921C8.1006 20.5865 8.09964 20.5827 8.09814 20.5791C8.09637 20.5749 8.09339 20.5702 8.08927 20.566C8.08519 20.5619 8.0816 20.5599 8.07978 20.5591C8.07872 20.5586 8.07772 20.5582 8.07478 20.5582C6.95596 20.5582 6.04896 19.6513 6.04896 18.5324V18.4974C6.04896 18.1637 6.12968 17.8487 6.27265 17.5711C6.13339 17.6846 5.98177 17.7938 5.81652 17.8977C5.54931 18.0657 5.26745 18.1742 5.08027 18.2462L5.06219 18.2532C4.45457 18.4872 4.16149 18.7268 3.99269 18.9848C3.81681 19.2537 3.68326 19.6841 3.68326 20.4827C3.68326 20.9905 3.90182 21.572 4.30633 22.0538C4.70794 22.5322 5.23342 22.8427 5.77485 22.9096L5.79012 22.9115L5.80533 22.9139C6.56051 23.0308 7.22101 23.022 7.80411 22.9277C9.33821 22.6795 10.9699 22.6795 12.5039 22.9274C13.0872 23.0217 13.7484 23.0306 14.5053 22.9138L14.5202 22.9115L14.5352 22.9096C15.0772 22.8426 15.6025 22.5328 16.0036 22.0557C16.4073 21.5754 16.6263 20.9942 16.6264 20.483L14.9482 18.1453ZM14.9482 18.1453L15.0129 18.1679M14.9482 18.1453L15.0129 18.1679M15.0129 18.1679C15.7768 18.4353 16.1142 18.6766 16.298 18.9285M15.0129 18.1679L16.298 18.9285M12.7399 1.00985C14.6 1.36288 15.6181 3.18311 15.6514 5.15702C15.6678 6.12904 15.4286 6.96958 15.056 7.49264C14.7196 7.96496 14.2937 8.17769 13.6957 8.07356L12.7399 1.00985ZM12.7399 1.00985C12.7202 1.03543 12.6925 1.07666 12.6598 1.1403C12.5005 1.4496 12.3724 1.98323 12.299 2.68895C12.1557 4.067 12.2586 5.67689 12.3233 6.32134C12.4231 7.30566 13.052 7.96095 13.6954 8.0735L12.7399 1.00985ZM16.298 18.9285C16.4793 19.1769 16.6261 19.5946 16.6264 20.4827L16.298 18.9285ZM3.24136 12.0277L3.26031 12.0531L3.28082 12.0773C3.51622 12.3548 3.68106 12.7612 3.68106 13.235C3.68106 14.2465 3.00648 14.7961 2.48424 14.7961C2.076 14.7961 1.6099 14.4961 1.39219 13.8712L1.38804 13.8593L1.3836 13.8475C1.11201 13.1269 0.96874 12.2621 1.00575 11.4967C1.03145 10.9653 1.13772 10.572 1.27419 10.3067C1.417 10.3879 1.59067 10.5022 1.7866 10.6485C2.39253 11.101 2.99134 11.692 3.24136 12.0277ZM17.0273 12.0773L17.0478 12.0531L17.0667 12.0277C17.3168 11.692 17.9156 11.101 18.5215 10.6485C18.7172 10.5022 18.8907 10.388 19.0334 10.3068C19.1699 10.5721 19.2762 10.9653 19.3019 11.4968C19.339 12.2622 19.1958 13.1273 18.9247 13.8483L18.9205 13.8597L18.9164 13.8712C18.6989 14.4956 18.2325 14.7961 17.8234 14.7961C17.3019 14.7961 16.6265 14.2462 16.6265 13.235C16.6265 12.7617 16.7916 12.3552 17.0273 12.0773ZM18.8078 9.99963L18.808 9.99978L18.8078 9.99963ZM8.07504 16.4714C7.69257 16.4714 7.33486 16.5773 7.02966 16.7615C7.36081 16.2913 7.56459 15.7873 7.70243 15.2907C7.82245 14.8583 7.89589 14.419 7.95953 14.0383L7.96479 14.0068C8.03268 13.6008 8.09143 13.258 8.18186 12.9375C8.31024 12.4901 8.57483 12.1025 8.93054 11.8298C9.28614 11.5571 9.71454 11.4129 10.1513 11.4141H10.1541C11.0973 11.4141 11.9096 12.0726 12.1407 12.9899L12.1408 12.9905C12.2167 13.2909 12.2746 13.5914 12.3382 13.9219C12.3564 14.0162 12.375 14.113 12.3947 14.2129C12.4793 14.643 12.5808 15.1177 12.7405 15.5818C12.9039 16.0565 13.13 16.5238 13.4611 16.9503C13.1241 16.6587 12.687 16.4796 12.2082 16.4716L12.2083 16.4292C12.2097 15.3003 11.295 14.3845 10.1661 14.3845H10.143C9.0042 14.3845 8.09947 15.3185 8.1011 16.4374C8.10111 16.443 8.10014 16.4469 8.09864 16.4504C8.09687 16.4547 8.09389 16.4594 8.08977 16.4635C8.08567 16.4677 8.08206 16.4697 8.08021 16.4705C8.0791 16.471 8.07804 16.4714 8.07504 16.4714ZM8.00871 2.68939C8.15197 4.06773 8.04868 5.67803 7.98379 6.32195L7.98377 6.32213C7.88434 7.30631 7.25602 7.96124 6.61292 8.07356C6.01455 8.17771 5.58847 7.96485 5.25193 7.49254C4.87923 6.96949 4.63997 6.12899 4.65631 5.15702C4.6895 3.18314 5.7077 1.36305 7.56789 1.01033C7.58759 1.0359 7.61525 1.07715 7.64805 1.14085C7.80732 1.4501 7.93536 1.98369 8.00871 2.68939Z" stroke="#0055FF" stroke-width="2"/>
</svg>
