<svg width="25" height="24" viewBox="0 0 25 24" fill="none" xmlns="http://www.w3.org/2000/svg">
<path d="M8 10C7.60218 10 7.22064 9.84196 6.93934 9.56066C6.65804 9.27936 6.5 8.89782 6.5 8.5C6.5 7.04131 7.07946 5.64236 8.11091 4.61091C9.14236 3.57946 10.5413 3 12 3C13.4587 3 14.8576 3.57946 15.8891 4.61091C16.9205 5.64236 17.5 7.04131 17.5 8.5V19C17.5 19.5304 17.2893 20.0391 16.9142 20.4142C16.5391 20.7893 16.0304 21 15.5 21H8.5C7.96957 21 7.46086 20.7893 7.08579 20.4142C6.71071 20.0391 6.5 19.5304 6.5 19V17C6.5 15.62 7.21 14.556 8.38 13.825L12.804 11.06C13.859 10.4 14.5 9.744 14.5 8.5C14.5 7.83696 14.2366 7.20107 13.7678 6.73223C13.2989 6.26339 12.663 6 12 6C11.337 6 10.7011 6.26339 10.2322 6.73223C9.76339 7.20107 9.5 7.83696 9.5 8.5C9.5 8.89782 9.34196 9.27936 9.06066 9.56066C8.77936 9.84196 8.39782 10 8 10Z" stroke="#0055FF" stroke-width="2" stroke-linecap="round" stroke-linejoin="round"/>
</svg>
