<svg width="25" height="24" viewBox="0 0 25 24" fill="none" xmlns="http://www.w3.org/2000/svg">
<path d="M18.724 10.0009C18.727 9.50693 18.744 9.22393 18.854 8.97093C18.986 8.66993 19.233 8.44693 19.726 8.00193L19.912 7.83493C20.968 6.88293 21.496 6.40593 21.5 5.71693C21.504 5.02693 21.035 4.59493 20.099 3.72893C19.9639 3.60346 19.8245 3.48272 19.681 3.36693C19.209 2.98893 18.543 2.57493 18.033 2.27693C17.7983 2.14088 17.539 2.05271 17.2701 2.01752C17.0011 1.98234 16.7278 2.00083 16.466 2.07193L15.976 2.20093C15.5822 2.30677 15.243 2.55798 15.027 2.90393C13.825 4.80093 11.175 4.80093 9.97302 2.90393C9.75718 2.55825 9.41849 2.30709 9.02502 2.20093L8.53503 2.07193C8.2731 2.00069 7.99964 1.98213 7.73048 2.01732C7.46133 2.0525 7.20184 2.14075 6.96703 2.27693C6.45703 2.57493 5.79103 2.98893 5.31903 3.36693C5.17554 3.48271 5.03612 3.60345 4.90103 3.72893C3.96403 4.59493 3.49603 5.02793 3.50003 5.71693C3.50403 6.40693 4.03203 6.88293 5.08803 7.83493L5.27403 8.00193C5.76703 8.44693 6.01403 8.66993 6.14503 8.96993C6.27703 9.26993 6.27703 9.61293 6.27703 10.2969V18.2659C6.27703 19.5889 6.27703 20.2509 6.72603 20.8129C7.17403 21.3749 7.71103 21.4729 8.78403 21.6709C9.77603 21.8529 11.033 22.0009 12.5 22.0009C13.967 22.0009 15.224 21.8529 16.216 21.6709C17.289 21.4729 17.826 21.3749 18.275 20.8129C18.723 20.2509 18.723 19.5889 18.723 18.2659V14.0009" stroke="#0055FF" stroke-width="2" stroke-linecap="round"/>
</svg>
