<svg width="25" height="24" viewBox="0 0 25 24" fill="none" xmlns="http://www.w3.org/2000/svg">
<path d="M9.51074 15.7121C11.0728 17.2742 14.8718 16.0079 17.996 12.8837C21.1202 9.7595 22.3865 5.96055 20.8244 4.39844" stroke="#0055FF" stroke-width="2" stroke-linecap="round" stroke-linejoin="round"/>
<path d="M14.1067 3.33789L14.8138 4.045" stroke="#0055FF" stroke-width="2" stroke-linecap="round" stroke-linejoin="round"/>
<path d="M11.6321 5.81274L12.3392 6.51984" stroke="#0055FF" stroke-width="2" stroke-linecap="round" stroke-linejoin="round"/>
<path d="M9.5105 8.6416L10.2176 9.3487" stroke="#0055FF" stroke-width="2" stroke-linecap="round" stroke-linejoin="round"/>
<path d="M8.80347 12.1768L9.51057 12.8839" stroke="#0055FF" stroke-width="2" stroke-linecap="round" stroke-linejoin="round"/>
<path d="M17.9958 2.27734L18.7029 2.98445" stroke="#0055FF" stroke-width="2" stroke-linecap="round" stroke-linejoin="round"/>
<path d="M17.2886 6.52051L18.7028 7.93471" stroke="#0055FF" stroke-width="2" stroke-linecap="round" stroke-linejoin="round"/>
<path d="M14.8142 8.99487L16.2284 10.4091" stroke="#0055FF" stroke-width="2" stroke-linecap="round" stroke-linejoin="round"/>
<path d="M11.9856 11.1162L13.3998 12.5305" stroke="#0055FF" stroke-width="2" stroke-linecap="round" stroke-linejoin="round"/>
<path d="M9.51037 17.8333C10.0962 17.2476 10.0962 16.2978 9.51037 15.712C8.92458 15.1262 7.97483 15.1262 7.38905 15.712L4.56062 18.5405C3.97483 19.1262 3.97483 20.076 4.56062 20.6618C5.14641 21.2476 6.09615 21.2476 6.68194 20.6618L9.51037 17.8333Z" stroke="#0055FF" stroke-width="2" stroke-linecap="round" stroke-linejoin="round"/>
</svg>
