<svg width="25" height="24" viewBox="0 0 25 24" fill="none" xmlns="http://www.w3.org/2000/svg">
<g clip-path="url(#clip0_1_1064)">
<path d="M17 24V10.5C17 9.94771 17.4477 9.5 18 9.5V9.5C18.663 9.5 19.2989 9.23661 19.7678 8.76777C20.2366 8.29893 20.5 7.66304 20.5 7V7C20.5 6.17157 19.8284 5.5 19 5.5H15C14.337 5.5 13.7011 5.23661 13.2322 4.76777C12.7634 4.29893 12.5 3.66304 12.5 3V6.894C12.5001 8.00318 12.2263 9.09522 11.7029 10.0732C11.1796 11.0511 10.4229 11.8847 9.5 12.5C8.5771 13.1153 7.8204 13.9489 7.29705 14.9268C6.77371 15.9048 6.49992 16.9968 6.5 18.106V23C6.5 23.2761 6.27614 23.5 6 23.5V23.5C5.33696 23.5 4.70107 23.2366 4.23223 22.7678C3.76339 22.2989 3.5 21.663 3.5 21V17M9 17.5H11C11.2761 17.5 11.5 17.7239 11.5 18V18C11.5 19.5 11.5 20.5 12.25 22C12.25 22 12.25 22 12.25 22C12.25 22 13 23.5 14 23.5" stroke="#0055FF" stroke-width="2"/>
</g>
<defs>
<clipPath id="clip0_1_1064">
<rect width="24" height="24" fill="white" transform="translate(0.5)"/>
</clipPath>
</defs>
</svg>
