<svg width="962" height="421" viewBox="0 0 962 421" fill="none" xmlns="http://www.w3.org/2000/svg">
<path d="M1046.08 826.188H1043.05L1040.1 826.913C697.199 911.367 326.884 760.685 141.692 580.94C95.678 536.279 62.1266 490.779 43.146 447.883C24.1913 405.046 20.3429 366.287 30.9504 333.219C51.8725 267.996 136.597 207.102 336.099 190.223C436.757 181.707 511.907 173.038 566.97 163.511C621.147 154.137 658.899 143.484 682.394 129.425C694.524 122.166 704.898 112.812 710.794 100.278C716.93 87.2366 716.706 74.0012 713.531 62.2241C710.508 51.0147 704.667 40.4645 698.453 31.0274C692.146 21.4521 684.442 11.5418 676.64 1.7298C675.068 -0.248169 673.483 -2.23425 671.892 -4.22958C640.696 -43.341 606.667 -86.0037 600.21 -140.608C593.714 -195.55 615.043 -269.92 720.514 -369.682C822.638 -466.278 951.154 -497.054 1089.06 -482.635C1227.54 -468.154 1374.42 -408.059 1509.33 -324.209C1644.1 -240.448 1765.39 -133.928 1852.71 -28.4625C1941.03 78.2086 1991 179.419 1991 252.876C1991 406.206 1890.16 548.956 1718.79 654.669C1547.82 760.138 1310.04 826.188 1046.08 826.188Z" stroke="#FEFDE6" stroke-width="50"/>
</svg>
