<svg width="1366" height="421" viewBox="0 0 1366 421" fill="none" xmlns="http://www.w3.org/2000/svg">
<path d="M846.079 862.188H840.149L834.851 864.851C326.177 1120.56 -102.564 1030.31 -273.689 847.421C-358.134 757.173 -380.605 644.836 -323.019 534.933C-264.28 422.829 -119.736 308.454 141.587 225.13C273.858 182.955 372.467 148.964 444.478 120.963C515.932 93.1783 563.013 70.6195 590.84 50.9191C604.603 41.1757 616.128 30.4503 622.593 17.9555C629.968 3.70413 629.992 -11.5068 622.783 -25.1401C616.594 -36.842 606.107 -45.394 596.584 -51.7257C586.64 -58.3375 574.789 -64.4126 562.798 -70.1291C555.067 -73.8148 547.239 -77.3838 539.378 -80.9678C521.669 -89.0423 503.792 -97.1929 486.476 -106.927C461.681 -120.866 442.693 -135.686 432.288 -152.594C422.875 -167.89 419.046 -187.163 429.53 -215.197C440.551 -244.668 467.393 -283.435 520.515 -333.682C622.639 -430.278 751.155 -461.054 889.057 -446.635C1027.54 -432.154 1174.42 -372.059 1309.33 -288.209C1444.1 -204.448 1565.39 -97.9276 1652.71 7.53751C1741.04 114.209 1791 215.419 1791 288.876C1791 442.206 1690.16 584.956 1518.79 690.669C1347.82 796.138 1110.04 862.188 846.079 862.188Z" stroke="#FEFDE6" stroke-width="50"/>
</svg>
