<svg width="25" height="24" viewBox="0 0 25 24" fill="none" xmlns="http://www.w3.org/2000/svg">
<path d="M18.3334 3C17.5377 3 16.7747 3.31607 16.2121 3.87868C15.6494 4.44129 15.3334 5.20435 15.3334 6V18C15.3334 18.7956 15.6494 19.5587 16.2121 20.1213C16.7747 20.6839 17.5377 21 18.3334 21C19.129 21 19.8921 20.6839 20.4547 20.1213C21.0173 19.5587 21.3334 18.7956 21.3334 18C21.3334 17.2044 21.0173 16.4413 20.4547 15.8787C19.8921 15.3161 19.129 15 18.3334 15H6.33337C5.53772 15 4.77466 15.3161 4.21205 15.8787C3.64944 16.4413 3.33337 17.2044 3.33337 18C3.33337 18.7956 3.64944 19.5587 4.21205 20.1213C4.77466 20.6839 5.53772 21 6.33337 21C7.12902 21 7.89209 20.6839 8.45469 20.1213C9.0173 19.5587 9.33337 18.7956 9.33337 18V6C9.33337 5.20435 9.0173 4.44129 8.45469 3.87868C7.89209 3.31607 7.12902 3 6.33337 3C5.53772 3 4.77466 3.31607 4.21205 3.87868C3.64944 4.44129 3.33337 5.20435 3.33337 6C3.33337 6.79565 3.64944 7.55871 4.21205 8.12132C4.77466 8.68393 5.53772 9 6.33337 9H18.3334C19.129 9 19.8921 8.68393 20.4547 8.12132C21.0173 7.55871 21.3334 6.79565 21.3334 6C21.3334 5.20435 21.0173 4.44129 20.4547 3.87868C19.8921 3.31607 19.129 3 18.3334 3Z" stroke="#0055FF" stroke-width="2" stroke-linecap="round" stroke-linejoin="round"/>
</svg>
