<svg width="25" height="24" viewBox="0 0 25 24" fill="none" xmlns="http://www.w3.org/2000/svg">
<path d="M20.6667 12V22H4.66669V12" stroke="#0055FF" stroke-width="2" stroke-linecap="round" stroke-linejoin="round"/>
<path d="M22.6667 7H2.66669V12H22.6667V7Z" stroke="#0055FF" stroke-width="2" stroke-linecap="round" stroke-linejoin="round"/>
<path d="M12.6667 22V7" stroke="#0055FF" stroke-width="2" stroke-linecap="round" stroke-linejoin="round"/>
<path d="M12.6667 7H8.16669C7.50365 7 6.86776 6.73661 6.39892 6.26777C5.93008 5.79893 5.66669 5.16304 5.66669 4.5C5.66669 3.83696 5.93008 3.20107 6.39892 2.73223C6.86776 2.26339 7.50365 2 8.16669 2C11.6667 2 12.6667 7 12.6667 7Z" stroke="#0055FF" stroke-width="2" stroke-linecap="round" stroke-linejoin="round"/>
<path d="M12.6667 7H17.1667C17.8297 7 18.4656 6.73661 18.9345 6.26777C19.4033 5.79893 19.6667 5.16304 19.6667 4.5C19.6667 3.83696 19.4033 3.20107 18.9345 2.73223C18.4656 2.26339 17.8297 2 17.1667 2C13.6667 2 12.6667 7 12.6667 7Z" stroke="#0055FF" stroke-width="2" stroke-linecap="round" stroke-linejoin="round"/>
</svg>
