<svg width="25" height="24" viewBox="0 0 25 24" fill="none" xmlns="http://www.w3.org/2000/svg">
<g clip-path="url(#clip0_1_6408)">
<path d="M23.6667 7V1H17.6667" stroke="#0055FF" stroke-width="2" stroke-linecap="round" stroke-linejoin="round"/>
<path d="M16.6667 8L23.6667 1" stroke="#0055FF" stroke-width="2" stroke-linecap="round" stroke-linejoin="round"/>
<path d="M22.6667 16.92V19.92C22.6678 20.1985 22.6108 20.4741 22.4992 20.7293C22.3876 20.9845 22.224 21.2136 22.0188 21.4018C21.8135 21.5901 21.5713 21.7335 21.3074 21.8227C21.0436 21.9119 20.7641 21.945 20.4867 21.92C17.4095 21.5856 14.4537 20.5341 11.8567 18.85C9.44051 17.3146 7.39202 15.2661 5.85668 12.85C4.16666 10.2412 3.11492 7.27097 2.78668 4.17997C2.76169 3.90344 2.79456 3.62474 2.88318 3.3616C2.97181 3.09846 3.11425 2.85666 3.30145 2.6516C3.48864 2.44653 3.71649 2.28268 3.97047 2.1705C4.22446 2.05831 4.49902 2.00024 4.77668 1.99997H7.77668C8.26199 1.9952 8.73247 2.16705 9.10044 2.48351C9.46841 2.79996 9.70876 3.23942 9.77668 3.71997C9.9033 4.68004 10.1381 5.6227 10.4767 6.52997C10.6112 6.8879 10.6403 7.27689 10.5606 7.65086C10.4808 8.02482 10.2955 8.36809 10.0267 8.63998L8.75668 9.90997C10.1802 12.4135 12.2531 14.4864 14.7567 15.91L16.0267 14.64C16.2986 14.3711 16.6418 14.1858 17.0158 14.1061C17.3898 14.0263 17.7788 14.0554 18.1367 14.19C19.044 14.5285 19.9866 14.7634 20.9467 14.89C21.4324 14.9585 21.8761 15.2032 22.1932 15.5775C22.5103 15.9518 22.6789 16.4296 22.6667 16.92Z" stroke="#0055FF" stroke-width="2" stroke-linecap="round" stroke-linejoin="round"/>
</g>
<defs>
<clipPath id="clip0_1_6408">
<rect width="24" height="24" fill="white" transform="translate(0.666687)"/>
</clipPath>
</defs>
</svg>
