<svg width="48" height="34" viewBox="0 0 48 34" fill="none" xmlns="http://www.w3.org/2000/svg">
<path d="M26.8143 23.8101C25.8812 24.7243 24.864 25.1627 24.864 25.1627C24.8174 25.1907 24.7707 25.2186 24.7147 25.2373C23.9589 25.6011 22.7645 26.0768 21.4208 26.3287C20.7863 26.4406 20.1518 26.4873 19.5359 26.4873C17.3804 26.4873 15.4675 25.9089 14.7303 25.685C10.5686 24.4351 7.92786 21.7766 7.05072 20.9091L7.03206 20.8904C2.4131 16.2544 1.8159 10.6762 2.03985 9.21167" stroke="#172647" stroke-width="3" stroke-miterlimit="10" stroke-linecap="round" stroke-linejoin="round"/>
<path d="M22.9231 10.7228C22.9231 6.73041 30.2668 6.73041 30.2668 10.7228" stroke="#172647" stroke-width="3" stroke-miterlimit="10" stroke-linecap="round" stroke-linejoin="round"/>
<path d="M9.79399 2.33722C9.28077 2.33722 11.1004 2.28125 11.1657 2.28125H32.7395C33.374 2.24394 38.0396 2.12267 41.6322 5.16362C44.0303 7.19714 45.3833 10.1355 45.6539 13.8854C45.6539 13.904 45.6539 13.932 45.6539 13.9507L45.9992 26.0865C45.9992 26.0958 45.9992 26.1145 45.9992 26.1331C46.0365 28.2693 44.6275 29.827 44.5528 29.911C44.3942 30.0789 43.601 30.9184 42.2387 31.3942C41.2682 31.73 40.4657 31.73 40.0272 31.73C35.4735 31.73 33.3553 27.9428 33.3553 25.3869C33.3553 21.9542 33.3553 18.5214 33.3553 15.0887" stroke="#172647" stroke-width="3" stroke-miterlimit="10" stroke-linecap="round" stroke-linejoin="round"/>
<path d="M11.5018 3.6245C11.5111 5.3875 11.0259 7.25312 10.1301 8.54972C8.32917 11.1709 4.10213 12.6634 2.64645 11.3015C2.17056 10.8538 1.99327 10.0982 2.03992 9.23067C2.1239 7.84079 2.79575 6.1524 3.7662 4.95841C6.40694 1.7309 11.0539 2.37453 11.4178 2.4305C11.4365 2.54244 11.4551 2.71035 11.4738 2.90623C11.4925 3.13944 11.5018 3.38197 11.5018 3.6245Z" fill="#172647" stroke="#172647" stroke-width="3" stroke-miterlimit="10" stroke-linecap="round" stroke-linejoin="round"/>
<path d="M3.53296 8.35332C3.64493 7.85894 4.03685 6.39443 5.40854 5.13514C6.73357 3.92249 8.17058 3.62399 8.6838 3.54004" stroke="white" stroke-width="3" stroke-miterlimit="10" stroke-linecap="round" stroke-linejoin="round"/>
<path d="M30.2948 19.7441C29.1097 21.3206 27.9246 22.6732 26.8142 23.8205" stroke="#172647" stroke-width="3" stroke-miterlimit="10" stroke-linecap="round" stroke-linejoin="round"/>
</svg>
